<svg xmlns="http://www.w3.org/2000/svg" xmlns:xlink="http://www.w3.org/1999/xlink" width="24" height="24"><defs><linearGradient id="a"><stop offset="0" stop-color="#fff"/><stop offset="1" stop-color="#fff" stop-opacity="0"/></linearGradient><linearGradient xlink:href="#a" id="b" gradientUnits="userSpaceOnUse" gradientTransform="translate(1) scale(.875)" x1="8" y1="16" x2="8" y2="8"/></defs><g transform="translate(4 -1032.362)"><g><path transform="translate(0 1037.362)" d="M8 0a7 7 0 1 0 0 14A7 7 0 0 0 8 0zm0 1a6 6 0 1 1 0 12A6 6 0 0 1 8 1z" opacity=".25" fill="url(#b)"/></g><circle transform="translate(0 1036.362)" cx="8" cy="8" r="6" fill-opacity=".667"/><path d="M8 1038.362a6 6 0 1 0 0 12 6 6 0 0 0 0-12zm0 1a5 5 0 1 1 0 10 5 5 0 0 1 0-10z" fill-opacity=".235"/></g><path d="M10.8 9h3.38c.452 0 .818.368.82.82v3.38zm2.407 6.007H9.812a.82.82 0 0 1-.82-.82v-3.394l4.215 4.214" opacity=".7" fill="#fff" fill-rule="evenodd"/></svg>