<svg xmlns="http://www.w3.org/2000/svg" xmlns:xlink="http://www.w3.org/1999/xlink" width="66" height="300" viewBox="0 0 66.000001 299.99999"><defs><linearGradient id="a"><stop offset="0" stop-color="#4a4c50"/><stop offset=".091" stop-color="#404142"/><stop offset=".927" stop-color="#404142"/><stop offset="1" stop-color="#393a3b"/></linearGradient><linearGradient xlink:href="#a" id="c" gradientUnits="userSpaceOnUse" gradientTransform="matrix(.1853 0 0 4.78333 151.43 -57.905)" x1="683" y1="38.105" x2="683" y2="97.895"/><linearGradient gradientTransform="matrix(.1802 0 0 1 154.915 85.362)" xlink:href="#b" id="d" x1="683.409" y1="40" x2="683.409" y2="42" gradientUnits="userSpaceOnUse"/><linearGradient id="b"><stop offset="0" stop-color="#fff"/><stop offset="1" stop-color="#fff" stop-opacity="0"/></linearGradient></defs><g transform="translate(-245 -118.362)"><g transform="translate(0 .5)" opacity=".75" fill="none" stroke="#000" stroke-linejoin="round"><rect rx="4" ry="4" y="122.862" x="250.5" height="289" width="55" opacity=".45"/><rect rx="5" ry="5" y="121.862" x="249.5" height="291" width="57" opacity=".25"/><rect rx="6" ry="6" y="120.862" x="248.5" height="293" width="59" opacity=".125"/><rect rx="7" ry="7" y="119.862" x="247.5" height="295" width="61" opacity=".062"/><rect rx="7.9" ry="8" y="118.862" x="246.5" height="297" width="63" opacity=".03"/><rect rx="3" ry="3" y="123.362" x="251.5" height="287.5" width="53" opacity=".5"/></g><rect width="53" height="287" x="251.5" y="123.862" ry="2" rx="2" fill="url(#c)" stroke="#000" stroke-linejoin="round" stroke-opacity=".902"/><path d="M304 406.362v2.5c0 .83-.67 1.5-1.5 1.5h-49c-.83 0-1.5-.67-1.5-1.5v-2.5z" opacity=".7" fill="#212425"/><rect width="52" height="1" x="252" y="405.362" rx="0" opacity=".7"/><rect width="52" height="1" x="252" y="406.362" rx="0" opacity=".08" fill="#fff"/><rect rx="1" ry="1" y="124.862" x="252.5" height="57" width="51" opacity=".2" fill="none" stroke="url(#d)" stroke-linejoin="round"/></g></svg>