<svg xmlns="http://www.w3.org/2000/svg" width="16" height="16"><g transform="translate(0 -1036.362)"><rect width="13" height="13" rx="1.5" ry="1.5" x="1.5" y="1037.862" color="#000" fill="none" stroke="#4080fb" overflow="visible"/><rect width="12" height="12" rx="1" ry="1" x="2" y="2" transform="translate(0 1036.362)" fill="#313133"/><path d="M3 1038.362c-.554 0-1 .446-1 1v1c0-.554.446-1 1-1h10c.554 0 1 .446 1 1v-1c0-.554-.446-1-1-1H3z" opacity=".2"/><path d="M1 1049.362v1c0 1.108.892 2 2 2h10c1.108 0 2-.892 2-2v-1c0 1.108-.892 2-2 2H3c-1.108 0-2-.892-2-2z" opacity=".15" fill="#fff"/><rect width="12" height="12" rx="1" ry="1" x="2" y="2" transform="translate(0 1036.362)" fill="none"/></g></svg>