<svg xmlns="http://www.w3.org/2000/svg" xmlns:xlink="http://www.w3.org/1999/xlink" width="16" height="16"><defs><linearGradient gradientUnits="userSpaceOnUse" y2="1036.362" x2="8" y1="1052.362" x1="8" id="d" xlink:href="#a" gradientTransform="translate(-16.837 -14.01)"/><linearGradient id="a"><stop offset="0" stop-color="#4080fb" stop-opacity=".745"/><stop offset="1" stop-color="#4080fb" stop-opacity=".492"/></linearGradient><linearGradient gradientTransform="matrix(.86667 0 0 .92857 -15.77 1023.387)" y2="14" x2="8" y1="1.039" x1="8" gradientUnits="userSpaceOnUse" id="e" xlink:href="#b"/><linearGradient id="b"><stop offset="0" stop-color="#0f0f0f"/><stop offset=".078" stop-color="#171717"/><stop offset=".974" stop-color="#171717"/><stop offset="1" stop-color="#1b1b1b"/></linearGradient><linearGradient gradientUnits="userSpaceOnUse" y2="3" x2="8" y1="14" x1="8" id="f" xlink:href="#c" gradientTransform="translate(-16.837 1022.352)"/><linearGradient id="c"><stop offset="0" stop-color="#353537"/><stop offset="1" stop-color="#4d4f52"/></linearGradient></defs><g transform="translate(16.837 -1022.352)"><path d="M-13.837 1022.352c-1.662 0-3 1.338-3 3v10c0 1.662 1.338 3 3 3h10c1.662 0 3-1.338 3-3v-10c0-1.662-1.338-3-3-3h-10zm0 1h10c1.108 0 2 .892 2 2v10c0 1.108-.892 2-2 2h-10c-1.108 0-2-.892-2-2v-10c0-1.108.892-2 2-2z" fill="url(#d)"/><rect width="13" height="13" x="-15.337" y="1023.852" rx="1.5" ry="1.5" color="#000" fill="none" stroke="url(#e)" overflow="visible"/><rect ry="1" rx="1" y="1024.352" x="-14.837" height="12" width="12" fill="url(#f)"/><rect ry="1" rx="1" y="1024.352" x="-14.837" height="12" width="12" fill="none"/><path d="M-13.837 1024.352c-.554 0-1 .446-1 1v1c0-.554.446-1 1-1h10c.554 0 1 .446 1 1v-1c0-.554-.446-1-1-1h-10z" opacity=".2" fill="#fff"/><g transform="rotate(45 5.233 1006.333)" opacity=".85" fill="#1a1a1a"><rect width="5" height="2" x="8" y="1033.362" rx="0" ry=".667"/><rect width="2" height="8" x="11" y="1027.362" ry="0"/></g><g transform="rotate(45 3.422 1007.083)" fill="#eee"><rect width="5" height="2" x="8" y="1033.362" rx="0" ry=".667"/><rect width="2" height="8" x="11" y="1027.362" ry="0"/></g><path fill="#cdcdcd" d="M-5.56 1026.78l.708.708-4.95 4.95-.707-.707z"/><path fill="none" d="M-11.923 1028.902l2.12 2.12-.706.71-2.12-2.123z"/><path fill="#cdcdcd" d="M-11.922 1028.898l2.122 2.122-.708.707-2.12-2.122z"/></g></svg>