/* XPM */
static char * bottom_right_active_xpm[] = {
"15 15 2 1",
" 	c None",
".	c #8C8C8C",
"              .",
"              .",
"              .",
"              .",
"              .",
"              .",
"              .",
"              .",
"              .",
"              .",
"              .",
"              .",
"              .",
"              .",
"..............."};
