/* XPM */
static char * bottom_left_active_xpm[] = {
"16 15 2 1",
" 	c None",
".	c #8C8C8C",
".               ",
".               ",
".               ",
".               ",
".               ",
".               ",
".               ",
".               ",
".               ",
".               ",
".               ",
".               ",
".               ",
".               ",
"................"};
