/* XPM */
static char * hide_prelight_xpm[] = {
"19 22 88 1",
" 	c #8C8C8C",
".	c #F2F2F2",
"+	c #F0F0F0",
"@	c #ECECEC",
"#	c #E8E8E8",
"$	c #4B91E7",
"%	c #E4E4E4",
"&	c #75ABED",
"*	c #74AAED",
"=	c #72A9ED",
"-	c #70A8EC",
";	c #6FA7EC",
">	c #6DA6EC",
",	c #6BA5EC",
"'	c #6AA4EB",
")	c #68A3EB",
"!	c #67A2EB",
"~	c #65A1EB",
"{	c #63A0EB",
"]	c #E0E0E0",
"^	c #73AAED",
"/	c #71A9ED",
"(	c #70A8ED",
"_	c #6EA7ED",
":	c #6CA6EC",
"<	c #69A4EC",
"[	c #67A3EC",
"}	c #66A2EB",
"|	c #64A1EB",
"1	c #619FEB",
"2	c #DDDDDD",
"3	c #72A9EB",
"4	c #70A8EB",
"5	c #6EA7EB",
"6	c #6DA6EB",
"7	c #6BA5EB",
"8	c #69A4EB",
"9	c #66A2EA",
"0	c #64A1EA",
"a	c #63A0EA",
"b	c #619FEA",
"c	c #609EEA",
"d	c #D9D9D9",
"e	c #6FA7EB",
"f	c #68A3EA",
"g	c #65A1EA",
"h	c #609EE9",
"i	c #5E9DE9",
"j	c #D5D5D5",
"k	c #6EA7EC",
"l	c #67A3EB",
"m	c #62A0EA",
"n	c #5F9EEA",
"o	c #5D9DEA",
"p	c #5C9CE9",
"q	c #D1D1D1",
"r	c #5E9DEA",
"s	c #5C9CEA",
"t	c #5A9BEA",
"u	c #CDCDCD",
"v	c #5B9BEA",
"w	c #599AEA",
"x	c #CACACA",
"y	c #6AA4EA",
"z	c #67A2EA",
"A	c #4A4A4A",
"B	c #5B9BE9",
"C	c #599AE9",
"D	c #5899E9",
"E	c #C6C6C6",
"F	c #5A9AE9",
"G	c #5698E9",
"H	c #C2C2C2",
"I	c #5799E9",
"J	c #5497E9",
"K	c #BEBEBE",
"L	c #5D9CEA",
"M	c #5396E8",
"N	c #BABABA",
"O	c #629FEA",
"P	c #5D9CE9",
"Q	c #5597E9",
"R	c #5396E9",
"S	c #5195E8",
"T	c #B7B7B7",
"U	c #B3B3B3",
"V	c #AFAFAF",
"W	c #ABABAB",
"                   ",
"...................",
"+++++++++++++++++++",
"@@@@@@@@@@@@@@@@@@@",
"###$$$$$$$$$$$$$$##",
"%%%$&*=-;>,')!~{$%%",
"]]]$^/(_:,<[}|{1$]]",
"222$345678)90abc$22",
"ddd$-e67'f9gabhi$dd",
"jjj$k:78l}0mbnop$jj",
"qqq$>,<)}|{bnrst$qq",
"uuu$7')}~{bcrsvw$uu",
"xxx$yfzAAAAAABCD$xx",
"EEE$)zgAAAAAAFDG$EE",
"HHH$}|abcrsvwIGJ$HH",
"KKK$~{bcrLBCDGJM$KK",
"NNN$aOcrPBFDGQRS$NN",
"TTT$$$$$$$$$$$$$$TT",
"UUUUUUUUUUUUUUUUUUU",
"VVVVVVVVVVVVVVVVVVV",
"WWWWWWWWWWWWWWWWWWW",
"                   "};
