/* XPM */
static char * maximize_pressed_xpm[] = {
"19 22 85 1",
" 	c #8C8C8C",
".	c #F2F2F2",
"+	c #F0F0F0",
"@	c #ECECEC",
"#	c #E8E8E8",
"$	c #1C6ACA",
"%	c #E4E4E4",
"&	c #75ABED",
"*	c #74AAED",
"=	c #72A9ED",
"-	c #70A8EC",
";	c #6FA7EC",
">	c #6DA6EC",
",	c #6BA5EC",
"'	c #6AA4EB",
")	c #68A3EB",
"!	c #67A2EB",
"~	c #65A1EB",
"{	c #63A0EB",
"]	c #E0E0E0",
"^	c #73AAED",
"/	c #71A9ED",
"(	c #70A8ED",
"_	c #6EA7ED",
":	c #6CA6EC",
"<	c #69A4EC",
"[	c #67A3EC",
"}	c #66A2EB",
"|	c #64A1EB",
"1	c #619FEB",
"2	c #DDDDDD",
"3	c #72A9EB",
"4	c #70A8EB",
"5	c #6EA7EB",
"6	c #6DA6EB",
"7	c #6BA5EB",
"8	c #69A4EB",
"9	c #66A2EA",
"0	c #64A1EA",
"a	c #63A0EA",
"b	c #619FEA",
"c	c #609EEA",
"d	c #D9D9D9",
"e	c #6FA7EB",
"f	c #609EE9",
"g	c #5E9DE9",
"h	c #D5D5D5",
"i	c #6EA7EC",
"j	c #5F9EEA",
"k	c #5D9DEA",
"l	c #5C9CE9",
"m	c #D1D1D1",
"n	c #5E9DEA",
"o	c #5C9CEA",
"p	c #5A9BEA",
"q	c #CDCDCD",
"r	c #5B9BEA",
"s	c #599AEA",
"t	c #CACACA",
"u	c #6AA4EA",
"v	c #68A3EA",
"w	c #67A2EA",
"x	c #629FEA",
"y	c #5B9BE9",
"z	c #599AE9",
"A	c #5899E9",
"B	c #C6C6C6",
"C	c #65A1EA",
"D	c #5A9AE9",
"E	c #5698E9",
"F	c #C2C2C2",
"G	c #5799E9",
"H	c #5497E9",
"I	c #BEBEBE",
"J	c #5D9CEA",
"K	c #5396E8",
"L	c #BABABA",
"M	c #5D9CE9",
"N	c #5597E9",
"O	c #5396E9",
"P	c #5195E8",
"Q	c #B7B7B7",
"R	c #B3B3B3",
"S	c #AFAFAF",
"T	c #ABABAB",
"                   ",
"...................",
"+++++++++++++++++++",
"@@@@@@@@@@@@@@@@@@@",
"###$$$$$$$$$$$$$$##",
"%%%$&*=-;>,')!~{$%%",
"]]]$^/(_:,<[}|{1$]]",
"222$345678)90abc$22",
"ddd$-e6......bfg$dd",
"hhh$i:7......jkl$hh",
"mmm$>,<.}|{b.nop$mm",
"qqq$7').~{bc.ors$qq",
"ttt$uvw.axcg.yzA$tt",
"BBB$)wC......DAE$BB",
"FFF$}|abcnorsGEH$FF",
"III$~{bcnJyzAEHK$II",
"LLL$axcnMyDAENOP$LL",
"QQQ$$$$$$$$$$$$$$QQ",
"RRRRRRRRRRRRRRRRRRR",
"SSSSSSSSSSSSSSSSSSS",
"TTTTTTTTTTTTTTTTTTT",
"                   "};
