/* XPM */
static char * menu_inactive_xpm[] = {
"16 22 2 1",
" 	c #8C8C8C",
".	c #F2F2F2",
"                ",
"................",
"................",
"................",
"................",
"................",
"................",
"................",
"................",
"................",
"................",
"................",
"................",
"................",
"................",
"................",
"................",
"................",
"................",
"................",
"................",
"                "};
