/* XPM */
static char * top_left_inactive_xpm[] = {
"7 22 2 1",
" 	c #8C8C8C",
".	c #F2F2F2",
"       ",
" ......",
" ......",
" ......",
" ......",
" ......",
" ......",
" ......",
" ......",
" ......",
" ......",
" ......",
" ......",
" ......",
" ......",
" ......",
" ......",
" ......",
" ......",
" ......",
" ......",
"       "};
