<svg xmlns="http://www.w3.org/2000/svg" xmlns:xlink="http://www.w3.org/1999/xlink" version="1" width="32" height="32" viewBox="0 0 23.272727 23.272727" enable-background="new 0 0 16 16"><defs><linearGradient id="a"><stop offset="0" stop-color="#4d4f52"/><stop offset="1" stop-color="#2b2b2c"/></linearGradient><linearGradient xlink:href="#a" id="c" x1="17" y1="5" x2="17" y2="27" gradientUnits="userSpaceOnUse"/><filter id="b" x="-.151" width="1.303" y="-.151" height="1.302" color-interpolation-filters="sRGB"><feGaussianBlur stdDeviation="1.006"/></filter></defs><g opacity=".8"><path transform="translate(4.753 3.852)" d="M7.656.125c-4.397 0-7.968 3.582-7.968 8s3.57 8 7.968 8 7.97-3.582 7.97-8-3.572-8-7.97-8z" xlink:href="#path2394-32" opacity=".25" color="#000" stroke="#000" stroke-width="2.182" overflow="visible" enable-background="accumulate" filter="url(#b)"/></g><path d="M21.09 11.636a8.727 8.727 0 1 1-17.454 0 8.727 8.727 0 1 1 17.455 0z" opacity=".75"/><path d="M28 16a11 11 0 1 1-22 0 11 11 0 1 1 22 0z" transform="matrix(.72727 0 0 -.72727 0 23.273)" fill="url(#c)"/><path d="M9.432 8h.749c.185.008.37.094.5.227l1.66 1.66 1.68-1.66c.194-.167.326-.222.5-.227h.728v.727c0 .21-.025.4-.182.546l-1.66 1.66 1.637 1.635c.137.137.205.33.205.523v.728h-.727a.738.738 0 0 1-.523-.204l-1.66-1.66-1.658 1.66a.738.738 0 0 1-.523.204H9.43v-.727c0-.192.067-.385.204-.522l1.66-1.636-1.66-1.66a.66.66 0 0 1-.204-.545V8z" style="text-indent:0;text-align:start;line-height:normal;text-transform:none;block-progression:tb;-inkscape-font-specification:Andale Mono" font-weight="400" color="#bebebe" overflow="visible" enable-background="new" font-family="Andale Mono"/><path d="M9.46 8.754h.75c.186.01.37.094.5.228l1.66 1.66 1.68-1.66c.194-.168.326-.222.5-.228h.728v.728c0 .208-.025.4-.18.545l-1.66 1.66 1.636 1.636c.137.137.204.33.204.522v.728h-.727a.738.738 0 0 1-.522-.205l-1.66-1.66-1.658 1.66a.738.738 0 0 1-.523.205H9.46v-.728c0-.193.068-.385.205-.522l1.66-1.637-1.66-1.66a.66.66 0 0 1-.205-.544v-.728z" style="text-indent:0;text-align:start;line-height:normal;text-transform:none;block-progression:tb;-inkscape-font-specification:Andale Mono" font-weight="400" color="#bebebe" overflow="visible" enable-background="new" font-family="Andale Mono" fill="#fff"/></svg>