<svg xmlns="http://www.w3.org/2000/svg" xmlns:xlink="http://www.w3.org/1999/xlink" version="1" width="26" height="26" viewBox="0 0 18.909091 18.909091"><defs><linearGradient xlink:href="#a" id="b" x1="17" y1="5" x2="17" y2="27" gradientUnits="userSpaceOnUse" gradientTransform="matrix(.72727 0 0 .72727 -2.91 -21.09)"/><linearGradient id="a"><stop offset="0" stop-opacity=".18"/><stop offset="1" stop-opacity=".431"/></linearGradient></defs><circle cx="9.455" cy="-9.455" r="8" transform="scale(1 -1)" fill="url(#b)"/><path d="M6.523 5.818h.75c.185.008.37.094.5.227l1.66 1.66 1.68-1.66c.194-.167.325-.222.5-.227h.728v.727c0 .21-.024.4-.18.546L10.5 8.75l1.636 1.636c.137.137.205.33.205.523v.726h-.726a.738.738 0 0 1-.523-.204l-1.658-1.66-1.66 1.66a.738.738 0 0 1-.522.204h-.727v-.727c0-.194.067-.387.204-.524l1.66-1.636-1.66-1.66a.66.66 0 0 1-.204-.545v-.727z" style="line-height:normal;-inkscape-font-specification:'Andale Mono';text-indent:0;text-align:start;text-decoration-line:none;text-transform:none;block-progression:tb" color="#bebebe" font-weight="400" font-family="Andale Mono" overflow="visible" opacity=".5"/><path d="M6.55 6.573h.751c.186.008.372.093.5.227l1.66 1.66 1.682-1.66c.193-.168.325-.222.5-.227h.727V7.3c0 .208-.026.4-.183.545l-1.66 1.66 1.638 1.636c.137.138.204.33.204.524v.727h-.728a.738.738 0 0 1-.523-.204l-1.66-1.66-1.66 1.66a.738.738 0 0 1-.522.205H6.55v-.726c0-.193.07-.386.206-.523l1.66-1.636-1.66-1.66A.66.66 0 0 1 6.55 7.3v-.727z" style="line-height:normal;-inkscape-font-specification:'Andale Mono';text-indent:0;text-align:start;text-decoration-line:none;text-transform:none;block-progression:tb" color="#bebebe" font-weight="400" font-family="Andale Mono" overflow="visible" fill="#fff"/><path d="M9.455 1.455a8 8 0 0 0-8 8c0 .122.017.242.022.363C1.67 5.57 5.16 2.182 9.455 2.182c4.295 0 7.785 3.388 7.977 7.636.005-.12.023-.24.023-.363a8 8 0 0 0-8-8z" opacity=".15"/><path d="M9.455.727A8.727 8.727 0 0 0 .727 9.455a8.727 8.727 0 0 0 8.728 8.727 8.727 8.727 0 0 0 8.727-8.727A8.727 8.727 0 0 0 9.455.727zm0 .728a8 8 0 0 1 8 8 8 8 0 0 1-8 8 8 8 0 0 1-8-8 8 8 0 0 1 8-8z" opacity=".668"/><path d="M18.168 9.886a8.727 8.727 0 0 1-7.344 8.178 8 8 0 0 1-.01 0 8.727 8.727 0 0 1-.024.004 8.727 8.727 0 0 1-.648.08 8 8 0 0 1-.687.034 8.727 8.727 0 0 1-.75-.037 8 8 0 0 1-.167-.02A8.727 8.727 0 0 1 .774 10.18H.727a8.727 8.727 0 0 0 8.728 8.727 8.727 8.727 0 0 0 8.727-8.728 8.727 8.727 0 0 0-.014-.296z" opacity=".2" fill="#fff"/></svg>