<svg xmlns="http://www.w3.org/2000/svg" xmlns:xlink="http://www.w3.org/1999/xlink" width="66" height="76" viewBox="0 0 66.000001 75.999996"><defs><linearGradient xlink:href="#a" id="d" gradientUnits="userSpaceOnUse" gradientTransform="matrix(.1853 0 0 1.05 151.43 307.962)" x1="682.589" y1="38.476" x2="682.589" y2="97.524"/><linearGradient gradientTransform="matrix(.1802 0 0 1 154.915 309.362)" xlink:href="#b" id="e" x1="683.409" y1="40" x2="683.409" y2="42" gradientUnits="userSpaceOnUse"/><linearGradient id="b"><stop offset="0" stop-color="#fff"/><stop offset="1" stop-color="#fff" stop-opacity="0"/></linearGradient><linearGradient id="a"><stop offset="0" stop-color="#505256"/><stop offset="1" stop-color="#393a3b"/></linearGradient><linearGradient id="c"><stop offset="0"/><stop offset="1" stop-opacity="0"/></linearGradient><linearGradient gradientUnits="userSpaceOnUse" y2="41" x2="683" y1="40" x1="683" id="f" xlink:href="#c" gradientTransform="matrix(.1802 0 0 .99998 154.915 -449.36)"/></defs><g transform="translate(-245 -342.362)" stroke-linejoin="round"><g transform="translate(0 224.5)" opacity=".75" fill="none" stroke="#000"><rect rx="4" ry="4" y="122.862" x="250.5" height="65" width="55" opacity=".45"/><rect rx="5" ry="5" y="121.862" x="249.5" height="67" width="57" opacity=".25"/><rect rx="6" ry="6" y="120.862" x="248.5" height="69" width="59" opacity=".125"/><rect rx="7" ry="7" y="119.862" x="247.5" height="71" width="61" opacity=".062"/><rect rx="8" ry="8" y="118.862" x="246.5" height="73" width="63" opacity=".03"/><rect rx="3" ry="3" y="123.362" x="251.5" height="63.5" width="53" opacity=".5"/></g><rect width="53" height="63" x="251.5" y="347.862" ry="2" rx="2" opacity=".5" stroke="#000"/><rect width="53" height="63" x="251.5" y="347.862" ry="2" rx="2" opacity=".8" fill="url(#d)" stroke="#000"/><rect rx="1" ry="1" y="348.862" x="252.5" height="57" width="51" opacity=".2" fill="none" stroke="url(#e)"/><rect width="51" height="56.999" x="252.5" y="-409.862" ry="1" rx="1" transform="scale(1 -1)" opacity=".1" fill="none" stroke="url(#f)"/></g></svg>