<svg xmlns="http://www.w3.org/2000/svg" xmlns:xlink="http://www.w3.org/1999/xlink" version="1" width="32" height="32" viewBox="0 0 23.272727 23.272727" enable-background="new 0 0 16 16"><defs><linearGradient id="a"><stop offset="0" stop-color="#ff5757"/><stop offset="1" stop-color="#d74747"/></linearGradient><filter color-interpolation-filters="sRGB" id="b" x="-.21" width="1.42" y="-.209" height="1.418"><feGaussianBlur stdDeviation="1.328"/></filter><linearGradient xlink:href="#a" id="c" x1="17" y1="5" x2="17" y2="27" gradientUnits="userSpaceOnUse"/></defs><g opacity=".8"><path transform="translate(4.026 3.125)" d="M7.656.125c-4.397 0-7.968 3.582-7.968 8s3.57 8 7.968 8 7.97-3.582 7.97-8-3.572-8-7.97-8z" xlink:href="#path2394-32" opacity=".53" color="#000" stroke="#000" stroke-width="2.182" overflow="visible" filter="url(#b)" enable-background="accumulate"/></g><path d="M20.364 10.91a8.727 8.727 0 1 1-17.455 0 8.727 8.727 0 1 1 17.454 0z" opacity=".75" fill="#892929"/><path d="M28 16a11 11 0 1 1-22 0 11 11 0 1 1 22 0z" transform="matrix(.72727 0 0 .72727 -.727 -.727)" fill="url(#c)"/><path d="M11.636 2.91a8 8 0 0 0-8 8c0 .122.018.24.023.363.19-4.25 3.68-7.637 7.976-7.637 4.296 0 7.786 3.388 7.978 7.637.005-.122.022-.24.022-.364a8 8 0 0 0-8-8z" opacity=".15" fill="#fff"/></svg>