<svg xmlns="http://www.w3.org/2000/svg" xmlns:xlink="http://www.w3.org/1999/xlink" width="13" height="14" viewBox="0 0 13 14"><defs><linearGradient gradientTransform="translate(639 627)" gradientUnits="userSpaceOnUse" y2="14" x2="8" y1="1" x1="8" id="d" xlink:href="#a"/><clipPath id="e"><rect ry="1.424" y="-1" x="-2" height="18" width="16" fill="#2bff02" fill-opacity=".54" stroke="#000" stroke-width="0"/></clipPath><linearGradient id="c"><stop offset="0" stop-opacity=".8"/><stop offset="1" stop-opacity=".9"/></linearGradient><linearGradient y2="13" x2="8" y1="2" x1="8" gradientUnits="userSpaceOnUse" id="f" xlink:href="#b"/><linearGradient id="b"><stop offset="0" stop-color="#fff"/><stop offset=".083" stop-color="#fff" stop-opacity="0"/><stop offset=".909" stop-color="#0b0b0b" stop-opacity="0"/><stop offset="1" stop-opacity=".027"/></linearGradient><linearGradient xlink:href="#c" id="g" gradientUnits="userSpaceOnUse" x1="14" y1="14" x2="14" y2="1"/><linearGradient xlink:href="#c" id="h" gradientUnits="userSpaceOnUse" x1="12" y1="14" x2="12" y2="1" gradientTransform="translate(2)"/><linearGradient id="a"><stop offset="0" stop-color="#5c5f63"/><stop offset="1" stop-color="#3b3c3e"/></linearGradient></defs><g transform="translate(-295 -517.362)"><path d="M641 628h12v13h-12c-.554 0-1-.446-1-1v-12z" opacity=".903" fill="url(#d)" transform="translate(-345 -109.638)"/><g transform="translate(294 517.362)"><g clip-path="url(#e)"><path d="M1.995 1.5h12.01c.274 0 .495.223.495.5v11c0 .277-.22.5-.495.5H1.995A.496.496 0 0 1 1.5 13V1.5z" color="#000" overflow="visible" opacity=".2" fill="none" stroke="url(#f)"/></g><rect ry="0" y="1" x="13" height="13" width="1" fill="url(#g)"/></g><rect width="13" height="1" x="295" y="517.362" ry="0" rx="0" opacity=".9" fill-opacity=".8"/></g></svg>