<svg xmlns="http://www.w3.org/2000/svg" xmlns:xlink="http://www.w3.org/1999/xlink" width="24" height="24"><defs><linearGradient id="a"><stop offset="0" stop-color="#fff"/><stop offset="1" stop-color="#fff" stop-opacity="0"/></linearGradient><linearGradient xlink:href="#a" id="b" gradientUnits="userSpaceOnUse" gradientTransform="translate(1) scale(.875)" x1="8" y1="16" x2="8" y2="8"/></defs><g transform="translate(4 -1032.362)"><g><path transform="translate(0 1037.362)" d="M8 0a7 7 0 1 0 0 14A7 7 0 0 0 8 0zm0 1a6 6 0 1 1 0 12A6 6 0 0 1 8 1z" opacity=".25" fill="url(#b)"/></g><circle r="6" cy="8" cx="8" transform="translate(0 1036.362)" fill-opacity=".588"/><path d="M8 1038.362a6 6 0 1 0 0 12 6 6 0 0 0 0-12zm0 1a5 5 0 1 1 0 10 5 5 0 0 1 0-10z" fill-opacity=".235"/></g><path style="line-height:normal;-inkscape-font-specification:'Andale Mono';text-indent:0;text-align:start;text-decoration-line:none;text-transform:none;block-progression:tb" d="M9.002 9h.774c.19.008.382.096.515.234l1.712 1.71 1.735-1.71c.2-.172.335-.23.515-.234h.75v.75c0 .215-.025.413-.187.563l-1.71 1.71 1.686 1.688c.143.142.212.34.212.54V15h-.75a.76.76 0 0 1-.54-.21l-1.71-1.712-1.71 1.71a.76.76 0 0 1-.54.212h-.75v-.75c0-.2.07-.398.21-.54l1.712-1.686-1.71-1.71A.68.68 0 0 1 9 9.75V9z" color="#bebebe" font-weight="400" font-family="Andale Mono" overflow="visible" fill="#fff"/></svg>