<svg xmlns="http://www.w3.org/2000/svg" xmlns:xlink="http://www.w3.org/1999/xlink" width="24" height="24"><defs><linearGradient id="b"><stop offset="0" stop-opacity=".628"/><stop offset="1" stop-opacity=".498"/></linearGradient><linearGradient id="c"><stop offset="0" stop-color="#fff"/><stop offset="1" stop-color="#fff" stop-opacity="0"/></linearGradient><linearGradient id="a"><stop offset="0" stop-color="#fff" stop-opacity=".216"/><stop offset="1" stop-color="#fff" stop-opacity="0"/></linearGradient><linearGradient y2="11" x2="8" y1="3" x1="8" gradientUnits="userSpaceOnUse" id="f" xlink:href="#a"/><linearGradient xlink:href="#b" id="e" gradientUnits="userSpaceOnUse" gradientTransform="matrix(.85714 0 0 .85714 5.143 1033.505)" x1="8" y1="1" x2="8" y2="15"/><linearGradient xlink:href="#c" id="d" gradientUnits="userSpaceOnUse" x1="8" y1="16" x2="8" y2="8" gradientTransform="matrix(.875 0 0 .875 5 1033.362)"/></defs><g opacity=".616"><path d="M12 1033.362a7 7 0 1 0 0 14 7 7 0 0 0 0-14zm0 1a6 6 0 1 1 0 12 6 6 0 0 1 0-12z" opacity=".25" fill="url(#d)" transform="translate(0 -1028.362)"/><path d="M12 1034.362a6 6 0 1 0 0 12 6 6 0 0 0 0-12zm0 2a4 4 0 1 1 0 8 4 4 0 0 1 0-8z" fill="url(#e)" transform="translate(0 -1028.362)"/><path d="M12 7a5 5 0 1 0 0 10 5 5 0 0 0 0-10zm0 1a4 4 0 1 1 0 8 4 4 0 0 1 0-8z" fill-opacity=".238"/><path d="M12 7a4 4 0 1 1-8 0 4 4 0 1 1 8 0z" transform="translate(4 5)" opacity=".459" fill="url(#f)"/><path d="M12 8a4 4 0 0 0-4 4c0 .17.042.336.063.5C8.31 10.528 9.96 9 12 9c2.04 0 3.69 1.528 3.938 3.5.02-.164.062-.33.062-.5a4 4 0 0 0-4-4z" opacity=".25" fill="#fff"/></g></svg>