/* XPM */
static char * close_inactive_xpm[] = {
"19 22 5 1",
" 	c #000000",
".	c #1A1A1A",
"+	c #747474",
"@	c #1B1B1B",
"#	c #070707",
"                   ",
"...................",
"...................",
"...................",
"...................",
"...................",
"...................",
"...................",
".......++..++......",
".......++++++......",
"........++++.......",
"........++++.......",
".......++++++......",
".......++..++......",
"...................",
"...................",
"...................",
"...................",
"...................",
"@@@@@@@............",
"@@@@@@@............",
"###################"};
