/* XPM */
static char * close_pressed_xpm[] = {
"19 22 101 2",
"  	c #1A1A1A",
". 	c #414141",
"+ 	c #404040",
"@ 	c #3E3E3E",
"# 	c #3C3C3C",
"$ 	c #0C2F5A",
"% 	c #3A3A3A",
"& 	c #0C315E",
"* 	c #0C3261",
"= 	c #0D3363",
"- 	c #0D3566",
"; 	c #0D3668",
"> 	c #0D376A",
", 	c #0E396D",
"' 	c #0E3A6F",
") 	c #0E3B72",
"! 	c #0F3C74",
"~ 	c #0F3E77",
"{ 	c #0F3F79",
"] 	c #383838",
"^ 	c #0E3361",
"/ 	c #0E3463",
"( 	c #0E3566",
"_ 	c #0F3668",
": 	c #0F386B",
"< 	c #0F396D",
"[ 	c #0F3A6F",
"} 	c #103C72",
"| 	c #103D74",
"1 	c #103E77",
"2 	c #113F79",
"3 	c #11417C",
"4 	c #363636",
"5 	c #0D3463",
"6 	c #0E3666",
"7 	c #0E3768",
"8 	c #0E386B",
"9 	c #0F3B70",
"0 	c #0F3C72",
"a 	c #0F3D74",
"b 	c #103F77",
"c 	c #104079",
"d 	c #10417C",
"e 	c #11427E",
"f 	c #343434",
"g 	c #0D3565",
"h 	c #0D3667",
"i 	c #0E386A",
"j 	c #000000",
"k 	c #0F3B71",
"l 	c #10417B",
"m 	c #10427D",
"n 	c #104380",
"o 	c #323232",
"p 	c #0D3768",
"q 	c #0D386A",
"r 	c #0E396C",
"s 	c #114480",
"t 	c #114582",
"u 	c #303030",
"v 	c #0F386A",
"w 	c #0F3A6D",
"x 	c #0F3B6F",
"y 	c #0F3C71",
"z 	c #11437E",
"A 	c #124785",
"B 	c #2E2E2E",
"C 	c #114380",
"D 	c #124583",
"E 	c #124685",
"F 	c #124787",
"G 	c #2C2C2C",
"H 	c #114585",
"I 	c #124788",
"J 	c #12488A",
"K 	c #2A2A2A",
"L 	c #134A8D",
"M 	c #282828",
"N 	c #114481",
"O 	c #114583",
"P 	c #124888",
"Q 	c #13498A",
"R 	c #134B8F",
"S 	c #262626",
"T 	c #0F3E76",
"U 	c #0F3F78",
"V 	c #114482",
"W 	c #114685",
"X 	c #114787",
"Y 	c #124889",
"Z 	c #124A8C",
"` 	c #134B8E",
" .	c #134C91",
"..	c #242424",
"+.	c #12498A",
"@.	c #134D91",
"#.	c #144E93",
"$.	c #222222",
"%.	c #202020",
"&.	c #1E1E1E",
"*.	c #1C1C1C",
"                                      ",
". . . . . . . . . . . . . . . . . . . ",
"+ + + + + + + + + + + + + + + + + + + ",
"@ @ @ @ @ @ @ @ @ @ @ @ @ @ @ @ @ @ @ ",
"# # # $ $ $ $ $ $ $ $ $ $ $ $ $ $ # # ",
"% % % $ & * = - ; > , ' ) ! ~ { $ % % ",
"] ] ] $ ^ / ( _ : < [ } | 1 2 3 $ ] ] ",
"4 4 4 $ 5 6 7 8 < 9 0 a b c d e $ 4 4 ",
"f f f $ g h i j j k a j j l m n $ f f ",
"o o o $ p q r j j j j j j m s t $ o o ",
"u u u $ v w x y j j j j z s t A $ u u ",
"B B B $ , [ 0 a j j j j C D E F $ B B ",
"G G G $ ' ) ! j j j j j j H I J $ G G ",
"K K K $ } | 1 j j e C j j I J L $ K K ",
"M M M $ a b c d e N O E P Q L R $ M M ",
"S S S $ T U l m n V W X Y Z `  .$ S S ",
"......$ c l m s t W F +.Z ` @.#.$ ....",
"$.$.$.$ $ $ $ $ $ $ $ $ $ $ $ $ $ $.$.",
"%.%.%.%.%.%.%.%.%.%.%.%.%.%.%.%.%.%.%.",
"&.&.&.&.&.&.&.&.&.&.&.&.&.&.&.&.&.&.&.",
"*.*.*.*.*.*.*.*.*.*.*.*.*.*.*.*.*.*.*.",
"                                      "};
