/* XPM */
static char * hide_inactive_xpm[] = {
"19 22 4 1",
" 	c #000000",
".	c #1A1A1A",
"+	c #747474",
"@	c #070707",
"                   ",
"...................",
"...................",
"...................",
"...................",
"...................",
"...................",
"...................",
"...................",
"...................",
"...................",
"...................",
".......++++++......",
".......++++++......",
"...................",
"...................",
"...................",
"...................",
"...................",
"...................",
"...................",
"@@@@@@@@@@@@@@@@@@@"};
