/* XPM */
static char * hide_prelight_xpm[] = {
"19 22 108 2",
"  	c #1A1A1A",
". 	c #414141",
"+ 	c #404040",
"@ 	c #3E3E3E",
"# 	c #3C3C3C",
"$ 	c #0C2F5A",
"% 	c #3A3A3A",
"& 	c #0C315E",
"* 	c #0C3261",
"= 	c #0D3363",
"- 	c #0D3566",
"; 	c #0D3668",
"> 	c #0D376A",
", 	c #0E396D",
"' 	c #0E3A6F",
") 	c #0E3B72",
"! 	c #0F3C74",
"~ 	c #0F3E77",
"{ 	c #0F3F79",
"] 	c #383838",
"^ 	c #0E3361",
"/ 	c #0E3463",
"( 	c #0E3566",
"_ 	c #0F3668",
": 	c #0F386B",
"< 	c #0F396D",
"[ 	c #0F3A6F",
"} 	c #103C72",
"| 	c #103D74",
"1 	c #103E77",
"2 	c #113F79",
"3 	c #11417C",
"4 	c #363636",
"5 	c #0D3463",
"6 	c #0E3666",
"7 	c #0E3768",
"8 	c #0E386B",
"9 	c #0F3B70",
"0 	c #0F3C72",
"a 	c #0F3D74",
"b 	c #103F77",
"c 	c #104079",
"d 	c #10417C",
"e 	c #11427E",
"f 	c #343434",
"g 	c #0D3565",
"h 	c #0D3667",
"i 	c #0E386A",
"j 	c #0E396C",
"k 	c #0F3B71",
"l 	c #0F3E76",
"m 	c #0F3F78",
"n 	c #10417B",
"o 	c #10427D",
"p 	c #104380",
"q 	c #323232",
"r 	c #0D3768",
"s 	c #0D386A",
"t 	c #0E3B6F",
"u 	c #0E3C71",
"v 	c #0F4079",
"w 	c #114480",
"x 	c #114582",
"y 	c #303030",
"z 	c #0F386A",
"A 	c #0F3A6D",
"B 	c #0F3B6F",
"C 	c #0F3C71",
"D 	c #103E74",
"E 	c #103F76",
"F 	c #11417B",
"G 	c #11437E",
"H 	c #124785",
"I 	c #2E2E2E",
"J 	c #103E76",
"K 	c #114380",
"L 	c #124583",
"M 	c #124685",
"N 	c #124787",
"O 	c #2C2C2C",
"P 	c #E0E0E0",
"Q 	c #114585",
"R 	c #124788",
"S 	c #12488A",
"T 	c #2A2A2A",
"U 	c #134A8D",
"V 	c #282828",
"W 	c #114481",
"X 	c #114583",
"Y 	c #124888",
"Z 	c #13498A",
"` 	c #134B8F",
" .	c #262626",
"..	c #114482",
"+.	c #114685",
"@.	c #114787",
"#.	c #124889",
"$.	c #124A8C",
"%.	c #134B8E",
"&.	c #134C91",
"*.	c #242424",
"=.	c #12498A",
"-.	c #134D91",
";.	c #144E93",
">.	c #222222",
",.	c #202020",
"'.	c #1E1E1E",
").	c #1C1C1C",
"                                      ",
". . . . . . . . . . . . . . . . . . . ",
"+ + + + + + + + + + + + + + + + + + + ",
"@ @ @ @ @ @ @ @ @ @ @ @ @ @ @ @ @ @ @ ",
"# # # $ $ $ $ $ $ $ $ $ $ $ $ $ $ # # ",
"% % % $ & * = - ; > , ' ) ! ~ { $ % % ",
"] ] ] $ ^ / ( _ : < [ } | 1 2 3 $ ] ] ",
"4 4 4 $ 5 6 7 8 < 9 0 a b c d e $ 4 4 ",
"f f f $ g h i j ' k a l m n o p $ f f ",
"q q q $ r s j t u a l v n o w x $ q q ",
"y y y $ z A B C D E c F G w x H $ y y ",
"I I I $ , [ 0 a J c n e K L M N $ I I ",
"O O O $ ' ) ! P P P P P P Q R S $ O O ",
"T T T $ } | 1 P P P P P P R S U $ T T ",
"V V V $ a b c d e W X M Y Z U ` $ V V ",
" . . .$ l m n o p ..+.@.#.$.%.&.$  . .",
"*.*.*.$ c n o w x +.N =.$.%.-.;.$ *.*.",
">.>.>.$ $ $ $ $ $ $ $ $ $ $ $ $ $ >.>.",
",.,.,.,.,.,.,.,.,.,.,.,.,.,.,.,.,.,.,.",
"'.'.'.'.'.'.'.'.'.'.'.'.'.'.'.'.'.'.'.",
").).).).).).).).).).).).).).).).).).).",
"                                      "};
