/* XPM */
static char * menu_inactive_xpm[] = {
"16 22 2 1",
" 	c #070707",
".	c #1A1A1A",
"                ",
"................",
"................",
"................",
"................",
"................",
"................",
"................",
"................",
"................",
"................",
"................",
"................",
"................",
"................",
"................",
"................",
"................",
"................",
"................",
"................",
"                "};
