/* XPM */
static char * top_right_active_xpm[] = {
"7 22 21 1",
" 	c #1A1A1A",
".	c #414141",
"+	c #404040",
"@	c #3E3E3E",
"#	c #3C3C3C",
"$	c #3A3A3A",
"%	c #383838",
"&	c #363636",
"*	c #343434",
"=	c #323232",
"-	c #303030",
";	c #2E2E2E",
">	c #2C2C2C",
",	c #2A2A2A",
"'	c #282828",
")	c #262626",
"!	c #242424",
"~	c #222222",
"{	c #202020",
"]	c #1E1E1E",
"^	c #1C1C1C",
"       ",
"...... ",
"++++++ ",
"@@@@@@ ",
"###### ",
"$$$$$$ ",
"%%%%%% ",
"&&&&&& ",
"****** ",
"====== ",
"------ ",
";;;;;; ",
">>>>>> ",
",,,,,, ",
"'''''' ",
")))))) ",
"!!!!!! ",
"~~~~~~ ",
"{{{{{{ ",
"]]]]]] ",
"^^^^^^ ",
"       "};
