<svg xmlns="http://www.w3.org/2000/svg" xmlns:xlink="http://www.w3.org/1999/xlink" width="13" height="14" viewBox="0 0 13 14"><defs><linearGradient gradientTransform="translate(639 627)" gradientUnits="userSpaceOnUse" y2="14" x2="8" y1="1" x1="8" id="d" xlink:href="#a"/><clipPath id="e"><rect ry="1.424" y="-1" x="-2" height="18" width="16" fill="#2bff02" fill-opacity=".54" stroke="#000" stroke-width="0"/></clipPath><linearGradient y2="13" x2="8" y1="2" x1="8" gradientUnits="userSpaceOnUse" id="f" xlink:href="#b"/><linearGradient id="b"><stop offset="0" stop-color="#fff"/><stop offset=".083" stop-color="#fff" stop-opacity="0"/><stop offset=".909" stop-color="#0b0b0b" stop-opacity="0"/><stop offset="1" stop-opacity=".027"/></linearGradient><linearGradient gradientTransform="translate(-307 517.362)" xlink:href="#c" id="g" gradientUnits="userSpaceOnUse" y1="2" x2="0" y2="14"/><linearGradient id="c"><stop offset="0" stop-color="#fff"/><stop offset="1" stop-color="#fff" stop-opacity=".667"/></linearGradient><linearGradient id="a"><stop offset="0" stop-color="#e86060"/><stop offset="1" stop-color="#ce3535"/></linearGradient></defs><g transform="matrix(-1 0 0 1 308 -517.362)"><path d="M641 628h12v13h-12c-.554 0-1-.446-1-1v-12z" opacity=".903" fill="url(#d)" transform="translate(-345 -109.638)"/><g clip-path="url(#e)" transform="translate(294 517.362)"><path d="M1.995 1.5h12.01c.274 0 .495.223.495.5v11c0 .277-.22.5-.495.5H1.995A.496.496 0 0 1 1.5 13V1.5z" color="#000" overflow="visible" opacity=".2" fill="none" stroke="url(#f)"/></g><rect rx="0" ry="0" y="517.362" x="295" height="1" width="13" opacity=".9" fill-opacity=".8"/><rect width="1" height="12" x="-308" y="519.362" ry="0" transform="scale(-1 1)" opacity=".1" fill="url(#g)"/></g></svg>