<svg xmlns="http://www.w3.org/2000/svg" xmlns:xlink="http://www.w3.org/1999/xlink" width="60" height="25"><defs><linearGradient id="d"><stop offset="0" stop-color="#0f0f0f"/><stop offset=".078" stop-color="#171717"/><stop offset=".974" stop-color="#171717"/><stop offset="1" stop-color="#1b1b1b"/></linearGradient><linearGradient id="b"><stop offset="0" stop-color="#353537"/><stop offset="1" stop-color="#4d4f52"/></linearGradient><linearGradient id="c"><stop offset="0" stop-color="#1a1a1a"/><stop offset="1" stop-color="#1a1a1a" stop-opacity="0"/></linearGradient><linearGradient y2="14" x2="11" y1="10" x1="11" gradientUnits="userSpaceOnUse" id="g" xlink:href="#a"/><linearGradient id="a"><stop offset="0" stop-color="#bebebe"/><stop offset="1" stop-color="#fff"/></linearGradient><linearGradient xlink:href="#b" id="f" gradientUnits="userSpaceOnUse" x1="12" y1="21" x2="12" y2="2"/><linearGradient xlink:href="#c" id="h" gradientUnits="userSpaceOnUse" gradientTransform="matrix(1 0 0 -1 0 22)" x1="11" y1="15" x2="11" y2="11"/><linearGradient xlink:href="#d" id="e" x1="193" y1="308.362" x2="193" y2="330.362" gradientUnits="userSpaceOnUse"/></defs><g transform="translate(-164 -307.362)"><rect ry="0" rx="0" y="307.362" x="164" height="25" width="60" opacity=".95" fill="none"/><rect ry="11" rx="11" y="308.362" x="165" height="22" width="58" fill="#313133"/><path d="M176 308.362c-6.094 0-11 4.906-11 11s4.906 11 11 11h36c6.094 0 11-4.906 11-11s-4.906-11-11-11h-36zm0 1h36c5.54 0 10 4.46 10 10s-4.46 10-10 10h-36c-5.54 0-10-4.46-10-10s4.46-10 10-10z" fill="url(#e)"/><path d="M165.03 319.862c-.006.168-.03.33-.03.5 0 6.094 4.906 11 11 11h36c6.094 0 11-4.906 11-11 0-.17-.024-.332-.03-.5-.263 5.858-5.045 10.5-10.97 10.5h-36c-5.925 0-10.706-4.642-10.97-10.5z" opacity=".1" fill="#fff"/></g><path d="M12 2C6.46 2 2 6.46 2 12c0 .173.023.33.03.5A9.96 9.96 0 0 1 12 3h36a9.96 9.96 0 0 1 9.97 9.5c.008-.17.03-.327.03-.5 0-5.54-4.46-10-10-10H12z" opacity=".16"/><g transform="translate(1 1)"><text y="-10.614" x="1095.784" font-weight="400" font-size="14" font-family="Bitstream Vera Sans" opacity=".8"/><text y="-55.645" x="1122.268" font-weight="400" font-size="14" font-family="Bitstream Vera Sans" opacity=".8"/><text y="-88.89" x="-503.11" font-weight="400" font-size="14" font-family="Bitstream Vera Sans" opacity=".8"/><text y="735.155" x="-2518.793" font-weight="400" font-size="14" font-family="Bitstream Vera Sans" opacity=".8"/><text y="-514.777" x="-376.566" font-weight="400" font-size="14" font-family="Bitstream Vera Sans" opacity=".8"/><text y="-971.777" x="516.06" font-weight="400" font-size="14" font-family="Bitstream Vera Sans" opacity=".8"/><text y="-1016.808" x="542.544" font-weight="400" font-size="14" font-family="Bitstream Vera Sans" opacity=".8"/><text y="-1024.777" x="-1105.94" font-weight="400" font-size="14" font-family="Bitstream Vera Sans" opacity=".8"/><text y="-1326.777" x="508.368" font-weight="400" font-size="14" font-family="Bitstream Vera Sans" opacity=".8"/><text y="-634.108" x="2150.95" font-weight="400" font-size="14" font-family="Bitstream Vera Sans" opacity=".8"/><text y="-679.139" x="2177.433" font-weight="400" font-size="14" font-family="Bitstream Vera Sans" opacity=".8"/><text y="-687.108" x="528.95" font-weight="400" font-size="14" font-family="Bitstream Vera Sans" opacity=".8"/><text y="-989.108" x="2143.258" font-weight="400" font-size="14" font-family="Bitstream Vera Sans" opacity=".8"/><text y="-740.262" x="-507.599" font-weight="400" font-size="14" font-family="Bitstream Vera Sans" opacity=".8"/><text y="83.783" x="-2523.282" font-weight="400" font-size="14" font-family="Bitstream Vera Sans" opacity=".8"/><text y="186.432" x="-627.998" font-weight="400" font-size="14" font-family="Bitstream Vera Sans" opacity=".8"/><text y="-11.614" x="597.784" font-weight="400" font-size="14" font-family="Bitstream Vera Sans" opacity=".8"/><text y="-56.645" x="624.268" font-weight="400" font-size="14" font-family="Bitstream Vera Sans" opacity=".8"/><text y="-64.614" x="-1024.216" font-weight="400" font-size="14" font-family="Bitstream Vera Sans" opacity=".8"/><text y="-366.614" x="590.092" font-weight="400" font-size="14" font-family="Bitstream Vera Sans" opacity=".8"/><text y="-67.614" x="-545.842" font-weight="400" font-size="14" font-family="Bitstream Vera Sans" opacity=".8"/><text y="756.431" x="-2561.524" font-weight="400" font-size="14" font-family="Bitstream Vera Sans" opacity=".8"/><text y="-1019.846" x="-378.842" font-weight="400" font-size="14" font-family="Bitstream Vera Sans" opacity=".8"/><text y="-1476.846" x="513.784" font-weight="400" font-size="14" font-family="Bitstream Vera Sans" opacity=".8"/><text y="-1521.877" x="540.268" font-weight="400" font-size="14" font-family="Bitstream Vera Sans" opacity=".8"/><text y="-1529.846" x="-1108.216" font-weight="400" font-size="14" font-family="Bitstream Vera Sans" opacity=".8"/><text y="-1831.846" x="506.092" font-weight="400" font-size="14" font-family="Bitstream Vera Sans" opacity=".8"/><text y="-1139.177" x="2148.674" font-weight="400" font-size="14" font-family="Bitstream Vera Sans" opacity=".8"/><text y="-1184.208" x="2175.157" font-weight="400" font-size="14" font-family="Bitstream Vera Sans" opacity=".8"/><text y="-1192.177" x="526.674" font-weight="400" font-size="14" font-family="Bitstream Vera Sans" opacity=".8"/><text y="-1494.177" x="2140.981" font-weight="400" font-size="14" font-family="Bitstream Vera Sans" opacity=".8"/><text y="-1245.331" x="-509.875" font-weight="400" font-size="14" font-family="Bitstream Vera Sans" opacity=".8"/><text y="-421.286" x="-2525.558" font-weight="400" font-size="14" font-family="Bitstream Vera Sans" opacity=".8"/><text y="-318.637" x="-630.274" font-weight="400" font-size="14" font-family="Bitstream Vera Sans" opacity=".8"/><text y="-52.359" x="298.177" font-weight="400" font-size="14" font-family="Bitstream Vera Sans" opacity=".8"/><text y="-97.39" x="324.66" font-weight="400" font-size="14" font-family="Bitstream Vera Sans" opacity=".8"/><text y="-311.846" x="-1078.842" font-weight="400" font-size="14" font-family="Bitstream Vera Sans" opacity=".8"/><text y="-768.846" x="-186.216" font-weight="400" font-size="14" font-family="Bitstream Vera Sans" opacity=".8"/><text y="-813.877" x="-159.732" font-weight="400" font-size="14" font-family="Bitstream Vera Sans" opacity=".8"/><text y="-821.846" x="-1808.216" font-weight="400" font-size="14" font-family="Bitstream Vera Sans" opacity=".8"/><text y="-1123.846" x="-193.908" font-weight="400" font-size="14" font-family="Bitstream Vera Sans" opacity=".8"/><text y="-431.177" x="1448.674" font-weight="400" font-size="14" font-family="Bitstream Vera Sans" opacity=".8"/><text y="-476.208" x="1475.157" font-weight="400" font-size="14" font-family="Bitstream Vera Sans" opacity=".8"/><text y="-484.177" x="-173.326" font-weight="400" font-size="14" font-family="Bitstream Vera Sans" opacity=".8"/><text y="-786.177" x="1440.981" font-weight="400" font-size="14" font-family="Bitstream Vera Sans" opacity=".8"/><text y="-537.331" x="-1209.876" font-weight="400" font-size="14" font-family="Bitstream Vera Sans" opacity=".8"/><text y="286.714" x="-3225.558" font-weight="400" font-size="14" font-family="Bitstream Vera Sans" opacity=".8"/><text y="1159.415" x="-664.274" font-weight="400" font-size="14" font-family="Bitstream Vera Sans" opacity=".8" transform="translate(-666 -770.052)"/><text y="-2.614" x="1095.784" font-weight="400" font-size="14" font-family="Bitstream Vera Sans" opacity=".8"/><text y="-47.645" x="1122.268" font-weight="400" font-size="14" font-family="Bitstream Vera Sans" opacity=".8"/><text y="-80.89" x="-503.11" font-weight="400" font-size="14" font-family="Bitstream Vera Sans" opacity=".8"/><text y="743.155" x="-2518.793" font-weight="400" font-size="14" font-family="Bitstream Vera Sans" opacity=".8"/><text y="-506.777" x="-376.566" font-weight="400" font-size="14" font-family="Bitstream Vera Sans" opacity=".8"/><text y="-963.777" x="516.06" font-weight="400" font-size="14" font-family="Bitstream Vera Sans" opacity=".8"/><text y="-1008.808" x="542.544" font-weight="400" font-size="14" font-family="Bitstream Vera Sans" opacity=".8"/><text y="-1016.777" x="-1105.94" font-weight="400" font-size="14" font-family="Bitstream Vera Sans" opacity=".8"/><text y="-1318.777" x="508.368" font-weight="400" font-size="14" font-family="Bitstream Vera Sans" opacity=".8"/><text y="-626.108" x="2150.95" font-weight="400" font-size="14" font-family="Bitstream Vera Sans" opacity=".8"/><text y="-671.139" x="2177.433" font-weight="400" font-size="14" font-family="Bitstream Vera Sans" opacity=".8"/><text y="-679.108" x="528.95" font-weight="400" font-size="14" font-family="Bitstream Vera Sans" opacity=".8"/><text y="-981.108" x="2143.258" font-weight="400" font-size="14" font-family="Bitstream Vera Sans" opacity=".8"/><text y="-732.262" x="-507.599" font-weight="400" font-size="14" font-family="Bitstream Vera Sans" opacity=".8"/><text y="91.783" x="-2523.282" font-weight="400" font-size="14" font-family="Bitstream Vera Sans" opacity=".8"/><text y="194.432" x="-627.998" font-weight="400" font-size="14" font-family="Bitstream Vera Sans" opacity=".8"/><text y="-3.614" x="597.784" font-weight="400" font-size="14" font-family="Bitstream Vera Sans" opacity=".8"/><text y="-48.645" x="624.268" font-weight="400" font-size="14" font-family="Bitstream Vera Sans" opacity=".8"/><text y="-56.614" x="-1024.216" font-weight="400" font-size="14" font-family="Bitstream Vera Sans" opacity=".8"/><text y="-358.614" x="590.092" font-weight="400" font-size="14" font-family="Bitstream Vera Sans" opacity=".8"/><text y="-59.614" x="-545.842" font-weight="400" font-size="14" font-family="Bitstream Vera Sans" opacity=".8"/><text y="764.431" x="-2561.524" font-weight="400" font-size="14" font-family="Bitstream Vera Sans" opacity=".8"/><text y="-1011.846" x="-378.842" font-weight="400" font-size="14" font-family="Bitstream Vera Sans" opacity=".8"/><text y="-1468.846" x="513.784" font-weight="400" font-size="14" font-family="Bitstream Vera Sans" opacity=".8"/><text y="-1513.877" x="540.268" font-weight="400" font-size="14" font-family="Bitstream Vera Sans" opacity=".8"/><text y="-1521.846" x="-1108.216" font-weight="400" font-size="14" font-family="Bitstream Vera Sans" opacity=".8"/><text y="-1823.846" x="506.092" font-weight="400" font-size="14" font-family="Bitstream Vera Sans" opacity=".8"/><text y="-1131.177" x="2148.674" font-weight="400" font-size="14" font-family="Bitstream Vera Sans" opacity=".8"/><text y="-1176.208" x="2175.157" font-weight="400" font-size="14" font-family="Bitstream Vera Sans" opacity=".8"/><text y="-1184.177" x="526.674" font-weight="400" font-size="14" font-family="Bitstream Vera Sans" opacity=".8"/><text y="-1486.177" x="2140.981" font-weight="400" font-size="14" font-family="Bitstream Vera Sans" opacity=".8"/><text y="-1237.331" x="-509.875" font-weight="400" font-size="14" font-family="Bitstream Vera Sans" opacity=".8"/><text y="-413.286" x="-2525.558" font-weight="400" font-size="14" font-family="Bitstream Vera Sans" opacity=".8"/><text y="-310.637" x="-630.274" font-weight="400" font-size="14" font-family="Bitstream Vera Sans" opacity=".8"/><text y="-44.359" x="298.177" font-weight="400" font-size="14" font-family="Bitstream Vera Sans" opacity=".8"/><text y="-89.39" x="324.66" font-weight="400" font-size="14" font-family="Bitstream Vera Sans" opacity=".8"/><text y="-303.846" x="-1078.842" font-weight="400" font-size="14" font-family="Bitstream Vera Sans" opacity=".8"/><text y="-760.846" x="-186.216" font-weight="400" font-size="14" font-family="Bitstream Vera Sans" opacity=".8"/><text y="-805.877" x="-159.732" font-weight="400" font-size="14" font-family="Bitstream Vera Sans" opacity=".8"/><text y="-813.846" x="-1808.216" font-weight="400" font-size="14" font-family="Bitstream Vera Sans" opacity=".8"/><text y="-1115.846" x="-193.908" font-weight="400" font-size="14" font-family="Bitstream Vera Sans" opacity=".8"/><text y="-423.177" x="1448.674" font-weight="400" font-size="14" font-family="Bitstream Vera Sans" opacity=".8"/><text y="-468.208" x="1475.157" font-weight="400" font-size="14" font-family="Bitstream Vera Sans" opacity=".8"/><text y="-476.177" x="-173.326" font-weight="400" font-size="14" font-family="Bitstream Vera Sans" opacity=".8"/><text y="-778.177" x="1440.981" font-weight="400" font-size="14" font-family="Bitstream Vera Sans" opacity=".8"/><text y="-529.331" x="-1209.876" font-weight="400" font-size="14" font-family="Bitstream Vera Sans" opacity=".8"/><text y="294.714" x="-3225.558" font-weight="400" font-size="14" font-family="Bitstream Vera Sans" opacity=".8"/><text y="1159.415" x="-664.274" font-weight="400" font-size="14" font-family="Bitstream Vera Sans" opacity=".8" transform="translate(-666 -762.052)"/><text style="-inkscape-font-specification:'Droid Sans'" y="-421.82" x="608" font-weight="400" font-size="14" font-family="Droid Sans"/><text y="-954.614" x="1122.158" font-weight="400" font-size="14" font-family="Bitstream Vera Sans" opacity=".8"/><text y="-130.569" x="-893.524" font-weight="400" font-size="14" font-family="Bitstream Vera Sans" opacity=".8"/><text y="-1269.614" x="1925.784" font-weight="400" font-size="14" font-family="Bitstream Vera Sans" opacity=".8"/><text y="-1314.645" x="1952.268" font-weight="400" font-size="14" font-family="Bitstream Vera Sans" opacity=".8"/><text y="-1322.614" x="303.784" font-weight="400" font-size="14" font-family="Bitstream Vera Sans" opacity=".8"/><text y="-1624.614" x="1918.092" font-weight="400" font-size="14" font-family="Bitstream Vera Sans" opacity=".8"/><path d="M11 .5C5.206.5.5 5.206.5 11S5.206 21.5 11 21.5 21.5 16.794 21.5 11 16.794.5 11 .5z" color="#000" overflow="visible" opacity=".36" fill="none" stroke="#000" stroke-linecap="round" stroke-linejoin="round"/><circle r="10" cy="11" cx="11" fill="url(#f)"/><circle r="3" cy="11" cx="11" opacity=".7" fill="#fff"/><path d="M11 8a3 3 0 1 0 0 6 3 3 0 0 0 0-6zm0 1a2 2 0 1 1 0 4 2 2 0 0 1 0-4z" fill="url(#g)"/><path d="M11 15a4 4 0 1 1 0-8 4 4 0 0 1 0 8zm0-1a3 3 0 1 0 0-6 3 3 0 0 0 0 6z" fill="url(#h)"/><path d="M.03 11.5c-.006.167-.03.33-.03.5 0 6.075 4.925 11 11 11s11-4.925 11-11c0-.17-.024-.333-.03-.5C21.704 17.34 16.905 22 11 22 5.094 22 .295 17.34.03 11.5z" fill-opacity=".118"/><path d="M11 1C5.477 1 1 5.477 1 11c0 .167.023.335.03.5C1.29 6.21 5.646 2 11 2s9.71 4.21 9.97 9.5c.007-.165.03-.333.03-.5 0-5.523-4.477-10-10-10z" opacity=".2" fill="#fff"/><path d="M11 .5C5.206.5.5 5.206.5 11S5.206 21.5 11 21.5 21.5 16.794 21.5 11 16.794.5 11 .5z" color="#000" overflow="visible" opacity=".36" fill="none" stroke="#000" stroke-linecap="round" stroke-linejoin="round"/></g></svg>