<svg xmlns="http://www.w3.org/2000/svg" xmlns:xlink="http://www.w3.org/1999/xlink" width="14.933" height="17.067" viewBox="0 0 14.000005 15.999999"><defs><linearGradient gradientTransform="matrix(-1 0 0 1 669 627)" gradientUnits="userSpaceOnUse" y2="14" x2="8" y1="1" x1="8" id="e" xlink:href="#a"/><linearGradient id="a"><stop offset="0" stop-color="#4d4f52"/><stop offset="1" stop-color="#353537"/></linearGradient><clipPath id="f"><rect ry="1.424" y="-1" x="-2" height="18" width="16" fill="#2bff02" fill-opacity=".54" stroke="#000" stroke-width="0"/></clipPath><linearGradient y2="14" x2="8" y1="13" x1="8" gradientUnits="userSpaceOnUse" id="g" xlink:href="#b"/><linearGradient id="b"><stop offset="0" stop-opacity=".8"/><stop offset="1" stop-opacity=".9"/></linearGradient><linearGradient y2="13" x2="8" y1="2" x1="8" gradientUnits="userSpaceOnUse" id="h" xlink:href="#c"/><linearGradient id="c"><stop offset="0" stop-color="#fff"/><stop offset=".083" stop-color="#fff" stop-opacity="0"/><stop offset=".909" stop-color="#0b0b0b" stop-opacity="0"/><stop offset="1" stop-opacity=".027"/></linearGradient><linearGradient xlink:href="#d" id="i" gradientUnits="userSpaceOnUse" y1="2" x2="0" y2="14"/><linearGradient id="d"><stop offset="0" stop-color="#fff"/><stop offset="1" stop-color="#fff" stop-opacity=".667"/></linearGradient></defs><path d="M667 628h-12v13h12c.554 0 1-.446 1-1v-11c0-.554-.446-1-1-1z" opacity=".9" fill="url(#e)" transform="translate(-655 -627)"/><g><g clip-path="url(#f)" transform="matrix(-1 0 0 1 14 0)" fill="none"><rect ry="1.513" rx="1.487" y=".5" x=".5" height="15" width="15" opacity=".1" stroke="#000"/><rect width="15" height="14" x=".5" y=".5" rx="1.5" ry="1.5" color="#000" overflow="visible" opacity=".9" stroke="url(#g)"/><rect width="13" height="12" x="1.5" y="1.5" rx=".495" ry=".5" color="#000" overflow="visible" opacity=".2" stroke="url(#h)"/></g><rect transform="scale(-1 1)" ry="0" y="2" x="-1" height="12" width="1" opacity=".1" fill="url(#i)"/></g></svg>