<svg xmlns="http://www.w3.org/2000/svg" xmlns:xlink="http://www.w3.org/1999/xlink" width="18" height="18"><defs><linearGradient id="b"><stop offset="0" stop-color="#232324"/><stop offset="1" stop-color="#363739"/></linearGradient><linearGradient id="a"><stop offset="0" stop-color="#0d0d0d"/><stop offset=".078" stop-color="#1b1b1b"/><stop offset=".974" stop-color="#1b1b1b"/><stop offset="1" stop-color="#1e1e1e"/></linearGradient><linearGradient y2="14" x2="8" y1="1" x1="8" gradientUnits="userSpaceOnUse" id="d" xlink:href="#a" gradientTransform="translate(1 -1)"/><linearGradient y2="14" x2="8" y1="1" x1="8" gradientUnits="userSpaceOnUse" id="e" xlink:href="#b" gradientTransform="translate(1 -1)"/><linearGradient id="c"><stop offset="0"/><stop offset="1" stop-opacity="0"/></linearGradient><linearGradient y2="3" x2="8" y1="1" x1="8" gradientUnits="userSpaceOnUse" id="f" xlink:href="#c" gradientTransform="translate(1 -1)"/></defs><g transform="translate(0 2)"><path d="M1.5 12v1c0 .838.676 1.5 1.5 1.5h12c.824 0 1.5-.662 1.5-1.5v-1c0 .83-.67 1.5-1.5 1.5H3c-.83 0-1.5-.67-1.5-1.5z" opacity=".15" fill="none" stroke="#fbfbfb"/><rect ry="1.5" rx="1.5" y="-.5" x="1.5" height="14" width="15" color="#000" fill="none" stroke="url(#d)" overflow="visible"/><rect width="14" height="13" x="2" ry="1" fill="url(#e)"/><rect width="14" height="13" x="2" ry="1" opacity=".2" fill="url(#f)"/></g></svg>