<?xml version="1.0" encoding="UTF-8" standalone="no"?>
<!-- Created with Inkscape (http://www.inkscape.org/) -->

<svg
   xmlns:dc="http://purl.org/dc/elements/1.1/"
   xmlns:cc="http://creativecommons.org/ns#"
   xmlns:rdf="http://www.w3.org/1999/02/22-rdf-syntax-ns#"
   xmlns:svg="http://www.w3.org/2000/svg"
   xmlns="http://www.w3.org/2000/svg"
   xmlns:xlink="http://www.w3.org/1999/xlink"
   xmlns:sodipodi="http://sodipodi.sourceforge.net/DTD/sodipodi-0.dtd"
   xmlns:inkscape="http://www.inkscape.org/namespaces/inkscape"
   id="svg2"
   version="1.1"
   inkscape:version="0.48.0 r9654"
   width="128"
   height="128"
   sodipodi:docname="uget-logo-128x128.png">
  <metadata
     id="metadata8">
    <rdf:RDF>
      <cc:Work
         rdf:about="">
        <dc:format>image/svg+xml</dc:format>
        <dc:type
           rdf:resource="http://purl.org/dc/dcmitype/StillImage" />
        <dc:title></dc:title>
      </cc:Work>
    </rdf:RDF>
  </metadata>
  <defs
     id="defs6">
    <linearGradient
       id="linearGradient4335">
      <stop
         style="stop-color:#687566;stop-opacity:1"
         offset="0"
         id="stop4337" />
      <stop
         style="stop-color:#ececec;stop-opacity:1"
         offset="1"
         id="stop4339" />
    </linearGradient>
    <linearGradient
       inkscape:collect="always"
       id="linearGradient3793">
      <stop
         style="stop-color:#0f7f00;stop-opacity:1"
         offset="0"
         id="stop3795" />
      <stop
         style="stop-color:#17c100;stop-opacity:1"
         offset="1"
         id="stop3797" />
    </linearGradient>
    <linearGradient
       id="linearGradient3767">
      <stop
         id="stop3775"
         offset="0"
         style="stop-color:#0f7f00;stop-opacity:0.49803922;" />
      <stop
         style="stop-color:#0f7f00;stop-opacity:0;"
         offset="1"
         id="stop3771" />
    </linearGradient>
    <linearGradient
       id="linearGradient3757">
      <stop
         id="stop3765"
         offset="0"
         style="stop-color:#005d00;stop-opacity:0.49803922;" />
      <stop
         style="stop-color:#000000;stop-opacity:0;"
         offset="1"
         id="stop3761" />
    </linearGradient>
    <linearGradient
       inkscape:collect="always"
       xlink:href="#linearGradient3793"
       id="linearGradient3799"
       x1="-61.121181"
       y1="-75.455254"
       x2="-59.408012"
       y2="-11.206224"
       gradientUnits="userSpaceOnUse"
       spreadMethod="reflect"
       gradientTransform="translate(124.01557,75.704279)" />
    <linearGradient
       inkscape:collect="always"
       xlink:href="#linearGradient4335"
       id="linearGradient4341"
       x1="47.315174"
       y1="192.99614"
       x2="44.824909"
       y2="64.498085"
       gradientUnits="userSpaceOnUse"
       gradientTransform="translate(-83.673152,-17.929961)" />
    <linearGradient
       inkscape:collect="always"
       xlink:href="#linearGradient4335"
       id="linearGradient4347"
       gradientUnits="userSpaceOnUse"
       gradientTransform="translate(18.428013,-65.245164)"
       x1="47.315174"
       y1="192.99614"
       x2="44.824909"
       y2="64.498085" />
    <linearGradient
       inkscape:collect="always"
       xlink:href="#linearGradient3793"
       id="linearGradient4383"
       gradientUnits="userSpaceOnUse"
       gradientTransform="translate(124.01557,75.704278)"
       spreadMethod="reflect"
       x1="-61.121181"
       y1="-75.455254"
       x2="-59.408012"
       y2="-11.206224" />
    <linearGradient
       inkscape:collect="always"
       xlink:href="#linearGradient4335"
       id="linearGradient4406"
       gradientUnits="userSpaceOnUse"
       gradientTransform="translate(18.428013,-65.245164)"
       x1="47.315174"
       y1="192.99614"
       x2="44.824909"
       y2="64.498085" />
    <linearGradient
       inkscape:collect="always"
       xlink:href="#linearGradient4335"
       id="linearGradient4413"
       gradientUnits="userSpaceOnUse"
       gradientTransform="translate(18.428013,-65.245164)"
       x1="47.315174"
       y1="192.99614"
       x2="44.824909"
       y2="64.498085" />
  </defs>
  <sodipodi:namedview
     pagecolor="#ffffff"
     bordercolor="#666666"
     borderopacity="1"
     objecttolerance="10"
     gridtolerance="10"
     guidetolerance="10"
     inkscape:pageopacity="0"
     inkscape:pageshadow="2"
     inkscape:window-width="1440"
     inkscape:window-height="846"
     id="namedview4"
     showgrid="false"
     showguides="true"
     inkscape:guide-bbox="true"
     inkscape:zoom="2.0078125"
     inkscape:cx="66.755635"
     inkscape:cy="4.0455379"
     inkscape:window-x="0"
     inkscape:window-y="24"
     inkscape:window-maximized="1"
     inkscape:current-layer="svg2" />
  <path
     style="fill:url(#linearGradient4413);fill-opacity:1"
     d="M 122.65625 9.6875 C 122.67919 10.469978 122.69971 11.342055 122.71875 12.25 C 122.73704 12.251518 122.76252 12.248327 122.78125 12.25 C 122.78212 11.978028 122.78193 11.709474 122.78125 11.4375 C 122.78098 10.986039 122.78123 10.513961 122.78125 10.0625 C 122.7522 9.9885648 122.70928 9.920091 122.6875 9.84375 C 122.66673 9.7709501 122.67388 9.7528343 122.65625 9.6875 z M 123.25 12.21875 C 123.21062 12.227205 123.15854 12.235962 123.125 12.28125 C 123.16903 12.286342 123.20394 12.306874 123.25 12.3125 C 123.25044 12.281187 123.24953 12.250063 123.25 12.21875 z M 118 18 L 85.25 18.03125 C 50.006634 18.078484 48.223666 18.309105 41.5 23.4375 C 39.57104 24.90879 36.982423 28.00686 35.75 30.3125 C 33.615434 34.30588 33.5 35.5901 33.5 57.5 L 33.5 80.5 L 29.75 80.8125 L 26 81.125 L 26 64.0625 L 26 47 L 18 47 L 10 47 L 10 68 L 10 89.03125 L 13.3125 92.625 C 16.540718 96.14759 16.778968 96.24206 25.6875 96.75 L 34.8125 97.28125 L 37.90625 101.6875 C 39.827708 104.4135 42.675462 106.84836 45.28125 108.03125 C 49.097343 109.76355 52.020581 109.94895 75.28125 109.96875 C 103.3362 109.99265 105.56518 109.63544 111.375 104.1875 C 117.29741 98.633989 117.94455 95.57158 117.96875 73.25 L 118 53 L 98 53 L 78 53 L 78 64.5 L 78 76 L 84 76 C 90 76 90 76 90 79 L 90 82 L 76 82 L 62 82 L 62 64.5 L 62 47 L 90 47 L 118 47 L 118 32.5 L 118 18 z M 4.90625 55.3125 C 4.9464146 55.501978 4.9317578 55.513697 4.96875 55.6875 C 5.0107575 55.686966 5.0514766 55.688144 5.09375 55.6875 C 5.0683482 55.584603 5.0042459 55.450099 4.90625 55.3125 z M 5.09375 63.1875 C 5.0953686 63.259761 5.0952022 63.333954 5.09375 63.40625 C 5.1039087 63.37495 5.1147084 63.343756 5.125 63.3125 C 5.1182979 63.270789 5.1027079 63.227762 5.09375 63.1875 z M 3.09375 64.71875 C 3.0884826 64.753037 3.0673616 64.778784 3.0625 64.8125 C 3.133896 64.827657 3.211858 64.827775 3.28125 64.84375 C 3.2172004 64.804779 3.1577436 64.755376 3.09375 64.71875 z M 4.625 67.71875 C 4.6216607 67.73137 4.5971748 67.737321 4.59375 67.75 C 4.6241897 67.761424 4.6653657 67.772205 4.6875 67.78125 C 4.6823007 67.777474 4.6313738 67.723299 4.625 67.71875 z M 4.40625 68.4375 C 4.3985108 68.459384 4.3829606 68.4779 4.375 68.5 C 4.4031336 68.533613 4.4401039 68.560479 4.46875 68.59375 C 4.4447111 68.543465 4.4304771 68.487697 4.40625 68.4375 z M 4.28125 68.71875 C 4.2576903 68.780547 4.2439589 68.842641 4.21875 68.90625 C 4.2187525 69.053054 4.2187972 69.196946 4.21875 69.34375 C 4.2187249 69.417231 4.2187738 69.489019 4.21875 69.5625 C 4.3198903 69.645739 4.4286743 69.725105 4.53125 69.8125 C 4.6146792 69.708907 4.6915935 69.605763 4.78125 69.5 C 4.5840295 69.185713 4.389637 68.93549 4.28125 68.71875 z M 4.78125 69.5 C 4.8445334 69.600847 4.8950752 69.700469 4.96875 69.8125 C 4.9820676 69.793813 4.9866351 69.768657 5 69.75 C 4.9483719 69.635916 4.8959325 69.520075 4.84375 69.40625 C 4.8181064 69.436073 4.806389 69.470345 4.78125 69.5 z M 5 69.75 C 5.005668 69.762525 5.0255878 69.768723 5.03125 69.78125 C 5.0427529 69.751194 5.0513432 69.717174 5.0625 69.6875 C 5.045459 69.711139 5.0169676 69.726314 5 69.75 z M 5.0625 69.6875 C 5.079541 69.663861 5.1078889 69.648594 5.125 69.625 C 5.1207602 69.611623 5.0979716 69.607349 5.09375 69.59375 C 5.0829373 69.623044 5.0736568 69.657826 5.0625 69.6875 z M 5.125 69.625 C 5.1323971 69.648339 5.1488044 69.664827 5.15625 69.6875 C 5.1564296 69.655708 5.1560688 69.625607 5.15625 69.59375 C 5.147759 69.605425 5.1334744 69.613315 5.125 69.625 z M 4.53125 69.8125 C 4.4294991 69.938843 4.3117303 70.064464 4.21875 70.1875 C 4.2188596 70.323964 4.218424 70.457286 4.21875 70.59375 C 4.2165223 70.791291 4.2206587 70.834759 4.21875 70.9375 C 4.401119 70.642682 4.5834011 70.347388 4.78125 70.0625 C 4.6920449 69.984155 4.6195154 69.887703 4.53125 69.8125 z M 4.21875 70.9375 C 4.1943781 70.9769 4.180289 71.022886 4.15625 71.0625 C 4.1845375 71.163001 4.1970822 71.274102 4.21875 71.375 C 4.2288657 71.369167 4.2396235 71.381072 4.25 71.375 C 4.2426312 71.245442 4.2163148 71.068583 4.21875 70.9375 z M 4.25 71.375 C 4.2515751 71.402694 4.2476882 71.436375 4.25 71.46875 C 4.2772036 71.411897 4.3174382 71.368342 4.34375 71.3125 C 4.3091017 71.33342 4.2827022 71.355864 4.25 71.375 z M 4.25 71.53125 C 4.2529265 71.672578 4.248201 71.819788 4.25 71.96875 C 4.2750624 71.959776 4.2881675 71.946131 4.3125 71.9375 C 4.2984452 71.803143 4.2745348 71.665081 4.25 71.53125 z M 4.3125 71.9375 C 4.3586159 72.378345 4.3584869 72.806634 4.3125 73.25 C 4.3197804 73.312476 4.3070675 73.38122 4.3125 73.4375 C 4.6195809 73.291257 4.8918949 73.12425 5.125 72.90625 C 5.1266305 72.51144 5.1230683 72.0622 5.125 71.65625 C 4.9269055 71.721279 4.6143658 71.83043 4.3125 71.9375 z M 3.71875 82.1875 C 3.7219493 82.198475 3.7155894 82.207838 3.71875 82.21875 C 3.7498613 82.219436 3.7814196 82.217927 3.8125 82.21875 C 3.8145962 82.208741 3.8104078 82.19751 3.8125 82.1875 C 3.7879699 82.187674 3.7463207 82.189889 3.71875 82.1875 z M 126.9375 82.40625 C 126.94706 82.497486 126.95591 82.596873 126.96875 82.6875 C 126.99875 82.669137 127.00914 82.656571 127.09375 82.625 C 127.14328 82.606519 127.19916 82.581339 127.25 82.5625 C 127.26208 82.51461 127.26925 82.483046 127.28125 82.4375 C 127.16824 82.423595 127.05457 82.421396 126.9375 82.40625 z M 127.1875 82.71875 C 127.09489 82.726167 127.00543 82.755218 126.96875 82.75 C 126.97489 82.791004 126.9932 82.834123 127 82.875 C 127.06377 82.849171 127.12217 82.80264 127.1875 82.78125 C 127.19324 82.756986 127.1818 82.742488 127.1875 82.71875 z M 122.625 83.71875 L 122.625 84.25 C 122.92833 84.61156 123.30738 84.936502 123.75 85.21875 C 123.43063 84.765764 123.06003 84.257411 122.625 83.71875 z M 123.9375 85.5625 C 123.63756 85.760314 123.49513 85.905103 123.75 85.84375 C 123.80632 85.830192 123.851 85.797746 123.90625 85.78125 C 123.91812 85.708181 123.92466 85.634483 123.9375 85.5625 z M 5.21875 91.21875 C 5.2061624 91.237417 5.2002292 91.262664 5.1875 91.28125 C 5.1773357 91.364253 5.1697122 91.447608 5.15625 91.53125 C 5.1813143 91.586022 5.2256628 91.633075 5.25 91.6875 C 5.2462521 91.546645 5.2223139 91.362792 5.21875 91.21875 z M 4.875 92.75 C 5.0198994 92.97372 5.1576652 93.180851 5.28125 93.34375 C 5.2784898 93.265949 5.2839395 93.203885 5.28125 93.125 C 5.1523109 92.983116 5.0211663 92.860769 4.875 92.75 z M 125.25 109.84375 C 125.02946 109.97654 124.8116 110.11363 124.59375 110.25 C 124.54042 110.37349 124.49736 110.49494 124.4375 110.625 C 124.47876 110.60321 124.52122 110.58426 124.5625 110.5625 C 124.76399 110.52 124.87446 110.50468 125.03125 110.46875 C 125.11519 110.38162 125.19441 110.29853 125.28125 110.21875 C 125.27287 110.09277 125.2602 109.97009 125.25 109.84375 z M 122.1875 110.1875 L 121.9375 110.34375 C 121.98794 110.44891 122.04469 110.55031 122.09375 110.65625 C 122.12398 110.50883 122.1487 110.34446 122.1875 110.1875 z M 126.96875 117.78125 C 126.91458 117.79567 126.86653 117.8288 126.8125 117.84375 C 126.7643 117.90789 126.70436 117.96706 126.65625 118.03125 C 126.76513 118.03845 126.83337 118.05497 126.9375 118.0625 C 127.04967 117.86569 127.11291 117.74288 126.96875 117.78125 z M 126.9375 118.0625 C 126.74712 118.39653 126.36311 118.90129 125.96875 119.34375 C 126.31619 119.28049 126.68326 119.25693 127.15625 119.28125 C 127.19665 119.2814 127.21105 119.28099 127.25 119.28125 C 127.53479 119.13025 127.80456 118.99774 128 118.9375 L 128 118.15625 C 127.67252 118.12342 127.33023 118.09091 126.9375 118.0625 z M 127.25 119.28125 C 126.9605 119.43475 126.66146 119.61303 126.34375 119.8125 C 126.66855 119.80094 126.98763 119.78626 127.3125 119.78125 C 127.53589 119.6633 127.76956 119.56712 128 119.46875 L 128 119.3125 C 127.7761 119.29953 127.56199 119.28333 127.25 119.28125 z M 126.65625 118.03125 C 126.58425 118.02649 126.54285 118.03587 126.46875 118.03125 C 126.23589 118.43619 126.01967 118.83733 125.75 119.21875 C 125.69562 119.29566 125.621 119.36329 125.5625 119.4375 C 125.59093 119.42977 125.62758 119.44478 125.65625 119.4375 C 125.97966 118.96066 126.31031 118.49279 126.65625 118.03125 z "
     id="path4333" />
  <path
     style="fill:#007300;fill-opacity:1;stroke:none"
     d="m 19.825373,125.05485 c -4.69021,-2.4795 -10.6208403,-9.12899 -13.2893303,-14.90015 -2.0491,-4.43158 -2.14972,-6.2324 -2.43749,-43.622408 -0.20074,-26.08306 0.0658,-40.490417 0.80487,-43.500001 1.62834,-6.631052 7.1964103,-14.4088706 13.2185103,-18.4643876 4.48899,-3.023061 6.04935,-3.526072 10.76343,-3.469801 l 5.51335,0.06581 -5.31375,1.430008 c -9.61168,2.586645 -17.47227,9.7832206 -21.2319103,19.4383696 -1.03243,2.651395 -1.45096,12.158652 -1.7262,39.211862 -0.30687,30.16374 -0.11674,36.68878 1.22385,42.000018 2.6950903,10.67755 9.6736103,18.41244 19.7529703,21.8939 l 5.29504,1.82894 -4.5,-0.0115 c -2.475,-0.006 -6.108,-0.86163 -8.07334,-1.90061 z m 79.573343,0.57863 c 9.235644,-2.92085 15.799954,-8.61901 19.700644,-17.10118 2.28619,-4.97138 2.30103,-5.28183 2.59337,-54.233488 0.20219,-33.85531 -0.0431,-49.8633486 -0.78518,-51.2500026 -0.92051,-1.719987 -0.77498,-2.016518 0.98965,-2.016518 l 2.06887,0 -0.28368,52.7500006 -0.28368,52.750008 -2.6605,5.04015 c -2.88285,5.46135 -10.31089,12.92818 -14.41227,14.48752 -1.40659,0.53478 -4.44063,0.94223 -6.742324,0.90543 l -4.1849,-0.0669 4,-1.26503 z M 49.143305,111.05513 c -4.559802,-1.08195 -9.813592,-4.85943 -12.896822,-9.27283 l -2.61977,-3.750008 -7.41366,0 c -8.16308,0 -11.89064,-1.37461 -15.22604,-5.61488 -1.9731103,-2.5084 -2.0883003,-3.86087 -2.0883003,-24.51998 l 0,-21.86514 9.0000003,0 9,0 0,16.5 0,16.5 2.41815,0 2.41816,0 0.33387,-22.75 c 0.36599,-24.93909 0.55549,-25.82183 6.90674,-32.173078 6.71221,-6.712204 5.79847,-6.576923 44.423083,-6.576923 l 34.999994,0 0.27605,15.250001 0.27604,15.25 -28.026038,0 -28.026047,0 0,16.5 0,16.5 13,0 c 12.333334,0 13.000001,-0.10257 13.000001,-2 0,-1.77537 -0.666667,-2 -5.935662,-2 l -5.935661,0 -0.323228,-10.75 c -0.17777,-5.9125 0.03906,-11.54675 0.481849,-12.52056 0.737758,-1.62251 2.494426,-1.74794 21.008888,-1.5 l 20.203808,0.27056 0.2803,20.5 c 0.23098,16.8928 -0.002,21.2446 -1.3257,24.73164 -2.0801,5.480868 -9.12399,11.695888 -14.90572,13.151738 -5.015655,1.26296 -48.094395,1.37567 -53.304285,0.13946 z m 56.452925,-3.76832 c 2.36718,-1.26415 5.63758,-4.31568 7.5,-6.99806 l 3.30248,-4.756458 0.30719,-20.25 0.30719,-20.25 -19.093397,0 -19.093401,0 0.286212,9.75 0.286212,9.75 5.75,0.2999 5.75,0.29991 0,3.8431 c 0,2.58192 -0.519093,4.04231 -1.581787,4.4501 -2.059053,0.79013 -24.777374,0.79013 -26.836424,0 -1.36305,-0.52305 -1.58179,-3.15047 -1.58179,-19 l 0,-18.39301 28.000001,0 27.999994,0 0,-13 0,-13.000001 -33.032113,0 c -35.413392,0 -37.386954,0.244288 -42.799254,5.297728 -5.34236,4.988143 -5.63331,6.507003 -6.16863,32.202273 l -0.5,24 -4.5,0 -4.5,0 -0.27418,-16.75 -0.27418,-16.75 -6.97582,0 -6.97582,0 0,19.54966 c 0,21.90528 0.50581,24.03888 6.35708,26.81549 2.20668,1.04714 6.087,1.6393 10.79405,1.64723 7.2539,0.0122 7.37733,0.0563 9.55054,3.41224 2.94283,4.544398 8.0547,8.316358 12.862622,9.491118 2.16464,0.5289 14.51071,0.87586 27.435711,0.77101 22.234364,-0.18036 23.726054,-0.31135 27.697514,-2.43223 z"
     id="path4331"
     inkscape:connector-curvature="0" />
  <path
     style="fill:url(#linearGradient4383);fill-opacity:1;fill-rule:nonzero"
     d="m 25.714669,126.13779 c -9.91758,-3.87504 -16.5617897,-11.45305 -19.2533697,-21.95931 -1.29535,-5.056242 -1.5013,-12.135602 -1.24553,-42.813342 0.27346,-32.79996 0.49974,-37.18584 2.10271,-40.75538 4.4727097,-9.96 11.1511597,-16.0705604 20.6457197,-18.8901404 7.57296,-2.24892003 92.122081,-2.44250003 93.970621,-0.21514 0.85164,1.02616 1.08219,14.8334004 0.87245,52.2500004 l -0.28507,50.855282 -2.77047,5.64151 c -3.53917,7.20681 -9.85245,13.01249 -17.09823,15.72348 -5.416671,2.02664 -7.392109,2.13264 -38.918811,2.08824 -30.05515,-0.0423 -33.66951,-0.22535 -38.02002,-1.9252 z m 79.089651,-17.58108 c 4.93017,-2.05945 9.05266,-6.04537 11.32202,-10.946952 1.60718,-3.47136 1.85484,-6.67624 1.8739,-24.25 l 0.022,-20.25 -19.999988,0 -19.999997,0 0,11.5 0,11.5 5.999998,0 c 6,0 6,0 6,3 l 0,3 -13.999999,0 -14.000005,0 0,-17.5 0,-17.5 28.000004,0 27.999987,0 0,-14.5 0,-14.5 -32.749987,0.0439 c -35.243374,0.0472 -37.037604,0.26851 -43.761264,5.3969 -1.92896,1.47129 -4.51555,4.5615 -5.74797,6.86714 -2.13457,3.99338 -2.24077,5.28217 -2.24077,27.19207 l 0,23 -3.75,0.31036 -3.75,0.31037 0,-17.06037 0,-17.06036 -8,0 -8,0 0,21.01468 0,21.01469 3.29858,3.59938 c 3.22822,3.52259 3.49277,3.61045 12.4013,4.11839 l 9.10272,0.51901 3.11894,4.424882 c 5.50384,7.80836 7.54725,8.26161 37.360585,8.28701 21.082754,0.018 26.459766,-0.26112 29.499986,-1.53109 z"
     id="path2987"
     inkscape:connector-curvature="0" />
</svg>
