<svg xmlns="http://www.w3.org/2000/svg" xmlns:xlink="http://www.w3.org/1999/xlink" width="46.933" height="26.667" viewBox="0 0 44.000001 24.999999"><defs><linearGradient id="b"><stop offset="0" stop-color="#fff"/><stop offset="1" stop-color="#fff" stop-opacity="0"/></linearGradient><linearGradient xlink:href="#a" id="c" gradientUnits="userSpaceOnUse" x1="595" x2="595" y2="24" gradientTransform="matrix(.95238 0 0 1.04167 -24.62 0)"/><linearGradient id="a"><stop offset="0"/><stop offset="1" stop-opacity=".552"/></linearGradient><linearGradient xlink:href="#b" id="d" x1="441" y1="444.362" x2="441" y2="469.362" gradientUnits="userSpaceOnUse"/><linearGradient gradientTransform="translate(43)" xlink:href="#b" id="e" x1="441" y1="444.362" x2="441" y2="469.362" gradientUnits="userSpaceOnUse"/></defs><path opacity=".6" fill="url(#c)" d="M523 0h40v25h-40z" transform="translate(-521)"/><path opacity=".05" d="M2 0h1v24H2z"/><path opacity=".5" d="M1 0h1v25H1z"/><path opacity=".05" d="M42 0h-1v24h1z"/><path opacity=".5" d="M43 0h-1v25h1z"/><path opacity=".4" d="M43 0v1H1V0zM42 24v1H2v-1z"/><path opacity=".08" fill="url(#d)" d="M441 444.362h1v25h-1z" transform="translate(-441 -444.362)"/><path opacity=".08" fill="url(#e)" d="M484 444.362h1v25h-1z" transform="translate(-441 -444.362)"/></svg>