/* XPM */
static char * close_prelight_xpm[] = {
"19 22 87 1",
" 	c #8C8C8C",
".	c #F2F2F2",
"+	c #F0F0F0",
"@	c #ECECEC",
"#	c #E8E8E8",
"$	c #4B91E7",
"%	c #E4E4E4",
"&	c #75ABED",
"*	c #74AAED",
"=	c #72A9ED",
"-	c #70A8EC",
";	c #6FA7EC",
">	c #6DA6EC",
",	c #6BA5EC",
"'	c #6AA4EB",
")	c #68A3EB",
"!	c #67A2EB",
"~	c #65A1EB",
"{	c #63A0EB",
"]	c #E0E0E0",
"^	c #73AAED",
"/	c #71A9ED",
"(	c #70A8ED",
"_	c #6EA7ED",
":	c #6CA6EC",
"<	c #69A4EC",
"[	c #67A3EC",
"}	c #66A2EB",
"|	c #64A1EB",
"1	c #619FEB",
"2	c #DDDDDD",
"3	c #72A9EB",
"4	c #70A8EB",
"5	c #6EA7EB",
"6	c #6DA6EB",
"7	c #6BA5EB",
"8	c #69A4EB",
"9	c #66A2EA",
"0	c #64A1EA",
"a	c #63A0EA",
"b	c #619FEA",
"c	c #609EEA",
"d	c #D9D9D9",
"e	c #6FA7EB",
"f	c #4A4A4A",
"g	c #68A3EA",
"h	c #609EE9",
"i	c #5E9DE9",
"j	c #D5D5D5",
"k	c #6EA7EC",
"l	c #5F9EEA",
"m	c #5D9DEA",
"n	c #5C9CE9",
"o	c #D1D1D1",
"p	c #5E9DEA",
"q	c #5C9CEA",
"r	c #5A9BEA",
"s	c #CDCDCD",
"t	c #5B9BEA",
"u	c #599AEA",
"v	c #CACACA",
"w	c #6AA4EA",
"x	c #67A2EA",
"y	c #5B9BE9",
"z	c #599AE9",
"A	c #5899E9",
"B	c #C6C6C6",
"C	c #65A1EA",
"D	c #5F9DEA",
"E	c #5A9AE9",
"F	c #5698E9",
"G	c #C2C2C2",
"H	c #5799E9",
"I	c #5497E9",
"J	c #BEBEBE",
"K	c #5D9CEA",
"L	c #5396E8",
"M	c #BABABA",
"N	c #629FEA",
"O	c #5D9CE9",
"P	c #5597E9",
"Q	c #5396E9",
"R	c #5195E8",
"S	c #B7B7B7",
"T	c #B3B3B3",
"U	c #AFAFAF",
"V	c #ABABAB",
"                   ",
"...................",
"+++++++++++++++++++",
"@@@@@@@@@@@@@@@@@@@",
"###$$$$$$$$$$$$$$##",
"%%%$&*=-;>,')!~{$%%",
"]]]$^/(_:,<[}|{1$]]",
"222$345678)90abc$22",
"ddd$-e6ffg9ffbhi$dd",
"jjj$k:7fffffflmn$jj",
"ooo$>,<)fffflpqr$oo",
"sss$7')}ffffpqtu$ss",
"vvv$wgxffffffyzA$vv",
"BBB$)xCffcDffEAF$BB",
"GGG$}|abcpqtuHFI$GG",
"JJJ$~{bcpKyzAFIL$JJ",
"MMM$aNcpOyEAFPQR$MM",
"SSS$$$$$$$$$$$$$$SS",
"TTTTTTTTTTTTTTTTTTT",
"UUUUUUUUUUUUUUUUUUU",
"VVVVVVVVVVVVVVVVVVV",
"                   "};
