/* XPM */
static char * maximize_toggled_inactive_xpm[] = {
"19 22 3 1",
" 	c #8C8C8C",
".	c #F2F2F2",
"+	c #747474",
"                   ",
"...................",
"...................",
"...................",
"...................",
"...................",
"...................",
"...................",
"........+++++......",
"........+...+......",
".......++++.+......",
".......+..+.+......",
".......+..+++......",
".......++++........",
"...................",
"...................",
"...................",
"...................",
"...................",
"...................",
"...................",
"                   "};
