/* XPM */
static char * maximize_toggled_active_xpm[] = {
"19 22 22 1",
" 	c #8C8C8C",
".	c #F2F2F2",
"+	c #F0F0F0",
"@	c #ECECEC",
"#	c #E8E8E8",
"$	c #E4E4E4",
"%	c #E0E0E0",
"&	c #DDDDDD",
"*	c #D9D9D9",
"=	c #4A4A4A",
"-	c #D5D5D5",
";	c #D1D1D1",
">	c #CDCDCD",
",	c #CACACA",
"'	c #C6C6C6",
")	c #C2C2C2",
"!	c #BEBEBE",
"~	c #BABABA",
"{	c #B7B7B7",
"]	c #B3B3B3",
"^	c #AFAFAF",
"/	c #ABABAB",
"                   ",
"...................",
"+++++++++++++++++++",
"@@@@@@@@@@@@@@@@@@@",
"###################",
"$$$$$$$$$$$$$$$$$$$",
"%%%%%%%%%%%%%%%%%%%",
"&&&&&&&&&&&&&&&&&&&",
"********=====******",
"--------=---=------",
";;;;;;;====;=;;;;;;",
">>>>>>>=>>=>=>>>>>>",
",,,,,,,=,,===,,,,,,",
"'''''''====''''''''",
")))))))))))))))))))",
"!!!!!!!!!!!!!!!!!!!",
"~~~~~~~~~~~~~~~~~~~",
"{{{{{{{{{{{{{{{{{{{",
"]]]]]]]]]]]]]]]]]]]",
"^^^^^^^^^^^^^^^^^^^",
"///////////////////",
"                   "};
