<svg xmlns="http://www.w3.org/2000/svg" xmlns:xlink="http://www.w3.org/1999/xlink" width="16" height="16"><defs><linearGradient gradientTransform="translate(-20 -4) scale(.85714)" gradientUnits="userSpaceOnUse" y2="14" x2="21" y1="14" x1="7" id="c" xlink:href="#a"/><linearGradient id="a"><stop offset="0" stop-color="#646464"/><stop offset="1" stop-color="#969696"/></linearGradient><linearGradient gradientTransform="translate(-5.538 -18.154) scale(.84613)" gradientUnits="userSpaceOnUse" y2="12" x2="13" y1="12" x1="10" id="d" xlink:href="#b"/><linearGradient id="b"><stop offset="0" stop-color="#fff"/><stop offset="1" stop-color="#fff" stop-opacity="0"/></linearGradient></defs><g transform="translate(-142 -397.99)"><rect width="15.982" height="16" x="142" y="398" rx="0" ry="0" fill="none"/><g transform="translate(142 397.99)"><rect ry="1.5" y="1" x="1" height="14" width="14" rx="1.5" opacity=".805"/><rect rx=".5" transform="rotate(-90)" ry=".5" y="2" x="-14" height="12" width="12" opacity=".885" fill="url(#c)"/><path transform="rotate(90)" opacity=".2" fill="none" stroke="url(#d)" stroke-linejoin="round" d="M2.5-13.5h11v11h-11z"/></g><path d="M149 401.99v2h-2v2h2v2h2v-2h2v-2h-2v-2h-2z" opacity=".4" fill-rule="evenodd"/><path d="M149 402.99v2h-2v2h2v2h2v-2h2v-2h-2v-2h-2z" fill="#fff" fill-rule="evenodd"/></g></svg>