<svg xmlns="http://www.w3.org/2000/svg" xmlns:xlink="http://www.w3.org/1999/xlink" width="512" height="32"><defs><linearGradient id="a"><stop offset="0" stop-color="#fff" stop-opacity="0"/><stop offset=".319" stop-color="#fff" stop-opacity=".154"/><stop offset=".543" stop-color="#fff" stop-opacity=".337"/><stop offset="1" stop-color="#fff"/></linearGradient><linearGradient id="b"><stop offset="0" stop-color="#bebebe" stop-opacity="0"/><stop offset=".319" stop-color="#fff" stop-opacity="0"/><stop offset=".751" stop-color="#fff" stop-opacity=".429"/><stop offset="1" stop-color="#fff"/></linearGradient><radialGradient xlink:href="#a" id="c" gradientUnits="userSpaceOnUse" gradientTransform="matrix(2.22945 -1.28654 1.20874 2.094 -228.903 -208.087)" cx="-.068" cy="188.519" fx="-.068" fy="188.519" r="27.33"/><radialGradient xlink:href="#b" id="d" gradientUnits="userSpaceOnUse" gradientTransform="matrix(1.1252 -.6047 .56814 1.05686 -107.67 -11.948)" cx=".054" cy="189.152" fx=".054" fy="189.152" r="27.33"/><radialGradient xlink:href="#a" id="as" gradientUnits="userSpaceOnUse" gradientTransform="matrix(2.22945 -1.28654 1.20874 2.094 -228.903 -208.087)" cx="-.068" cy="188.519" fx="-.068" fy="188.519" r="27.33"/><radialGradient xlink:href="#b" id="at" gradientUnits="userSpaceOnUse" gradientTransform="matrix(1.1252 -.6047 .56814 1.05686 -107.67 -11.948)" cx=".054" cy="189.152" fx=".054" fy="189.152" r="27.33"/></defs><g transform="translate(0 -16)"><g id="ac" fill="none" stroke-width="17.832"><path transform="matrix(-.0484 .18056 -.18056 -.04835 39.123 37.368)" d="M-3.444 184.72a22.98 22.98 0 0 1-25.904 17.426 22.98 22.98 0 0 1-19.374-24.482 22.98 22.98 0 0 1 22.913-21.206" stroke="url(#c)" stroke-linecap="round"/><path d="M-3.444 184.72a22.98 22.98 0 0 1-25.904 17.426 22.98 22.98 0 0 1-19.374-24.482 22.98 22.98 0 0 1 22.913-21.206" transform="matrix(-.18688 .00425 -.0043 -.1869 3.97 57.59)" stroke="url(#d)"/></g><use height="100%" width="100%" transform="rotate(6 1747.05 376.668)" xlink:href="#g10450-5"/><use height="100%" width="100%" transform="rotate(12 919.177 242.735)" xlink:href="#use12000"/><use height="100%" width="100%" transform="rotate(18 632.838 374.713)" xlink:href="#g10450-5"/><use height="100%" width="100%" transform="rotate(24 516.88 307.132)" xlink:href="#use12000"/><use height="100%" width="100%" transform="rotate(30 457.868 266.285)" xlink:href="#use12002"/><use height="100%" width="100%" transform="rotate(36 385.325 368.067)" xlink:href="#g10450-5"/><use height="100%" width="100%" transform="rotate(42 371.044 328.37)" xlink:href="#use12000"/><use height="100%" width="100%" transform="rotate(48 366.922 298.213)" xlink:href="#use12002"/><use height="100%" width="100%" transform="rotate(54 369.565 274.408)" id="e" xlink:href="#use12008"/><use xlink:href="#e" id="f" transform="rotate(6 291.97 287.24)" width="100%" height="100%"/><use xlink:href="#f" id="g" transform="rotate(6 319.97 287.245)" width="100%" height="100%"/><use xlink:href="#g" id="h" transform="rotate(6 347.974 287.247)" width="100%" height="100%"/><use xlink:href="#h" id="i" transform="rotate(6 376.002 287.246)" width="100%" height="100%"/><use xlink:href="#i" id="j" transform="rotate(6 404.052 287.243)" width="100%" height="100%"/><use xlink:href="#j" id="k" transform="rotate(6 432.03 287.234)" width="100%" height="100%"/><use xlink:href="#k" id="l" transform="rotate(6 460.012 287.227)" width="100%" height="100%"/><use xlink:href="#l" id="m" transform="rotate(6 488.01 287.223)" width="100%" height="100%"/><use xlink:href="#m" id="n" transform="rotate(6 516.006 287.22)" width="100%" height="100%"/><use xlink:href="#n" id="o" transform="rotate(6 544.003 287.215)" width="100%" height="100%"/><use xlink:href="#o" id="p" transform="rotate(6 572 287.21)" width="100%" height="100%"/><use xlink:href="#p" id="q" transform="rotate(6 599.996 287.208)" width="100%" height="100%"/><use xlink:href="#q" id="r" transform="rotate(6 627.99 287.206)" width="100%" height="100%"/><use xlink:href="#r" id="s" transform="rotate(6 655.987 287.204)" width="100%" height="100%"/><use xlink:href="#s" id="t" transform="rotate(6 683.982 287.202)" width="100%" height="100%"/><use xlink:href="#t" id="u" transform="rotate(6 711.977 287.2)" width="100%" height="100%"/><use xlink:href="#u" id="v" transform="rotate(6 739.972 287.2)" width="100%" height="100%"/><use xlink:href="#v" id="w" transform="rotate(6 767.97 287.206)" width="100%" height="100%"/><use xlink:href="#w" id="x" transform="rotate(6 795.97 287.233)" width="100%" height="100%"/><use xlink:href="#x" id="y" transform="rotate(6 823.975 287.283)" width="100%" height="100%"/><use xlink:href="#y" id="z" transform="rotate(6 851.984 287.262)" width="100%" height="100%"/><use xlink:href="#z" id="A" transform="rotate(6 879.99 287.244)" width="100%" height="100%"/><use xlink:href="#A" id="B" transform="rotate(6 907.995 287.24)" width="100%" height="100%"/><use xlink:href="#B" id="C" transform="rotate(6 936 287.238)" width="100%" height="100%"/><use xlink:href="#C" id="D" transform="rotate(6 964.003 287.235)" width="100%" height="100%"/><use xlink:href="#D" id="E" transform="rotate(6 992.006 287.23)" width="100%" height="100%"/><use xlink:href="#E" id="F" transform="rotate(6 1020.01 287.227)" width="100%" height="100%"/><use xlink:href="#F" id="G" transform="rotate(6 1048.012 287.223)" width="100%" height="100%"/><use xlink:href="#G" id="H" transform="rotate(6 1076.014 287.218)" width="100%" height="100%"/><use xlink:href="#H" id="I" transform="rotate(6 1104.015 287.214)" width="100%" height="100%"/><use xlink:href="#I" id="J" transform="rotate(6 1132.017 287.21)" width="100%" height="100%"/><use xlink:href="#J" id="K" transform="rotate(6 1160.017 287.204)" width="100%" height="100%"/><use xlink:href="#K" id="L" transform="rotate(6 1188.01 287.202)" width="100%" height="100%"/><use xlink:href="#L" id="M" transform="rotate(6 1215.984 287.203)" width="100%" height="100%"/><use xlink:href="#M" id="N" transform="rotate(6 1243.934 287.206)" width="100%" height="100%"/><use xlink:href="#N" id="O" transform="rotate(6 1271.956 287.215)" width="100%" height="100%"/><use xlink:href="#O" id="P" transform="rotate(6 1299.974 287.222)" width="100%" height="100%"/><use xlink:href="#P" id="Q" transform="rotate(6 1327.977 287.226)" width="100%" height="100%"/><use xlink:href="#Q" id="R" transform="rotate(6 1355.98 287.23)" width="100%" height="100%"/><use xlink:href="#R" id="S" transform="rotate(6 1383.983 287.234)" width="100%" height="100%"/><use xlink:href="#S" id="T" transform="rotate(6 1411.986 287.238)" width="100%" height="100%"/><use xlink:href="#T" id="U" transform="rotate(6 1439.99 287.24)" width="100%" height="100%"/><use xlink:href="#U" id="V" transform="rotate(6 1467.995 287.243)" width="100%" height="100%"/><use xlink:href="#V" id="W" transform="rotate(6 1496 287.245)" width="100%" height="100%"/><use xlink:href="#W" id="X" transform="rotate(6 1524.004 287.247)" width="100%" height="100%"/><use xlink:href="#X" id="Y" transform="rotate(6 1552.01 287.248)" width="100%" height="100%"/><use xlink:href="#Y" id="Z" transform="rotate(6 1580.014 287.25)" width="100%" height="100%"/><use xlink:href="#Z" id="aa" transform="rotate(6 1608.015 287.243)" width="100%" height="100%"/><use xlink:href="#aa" id="ab" transform="rotate(6 1636.015 287.216)" width="100%" height="100%"/><use xlink:href="#ab" transform="rotate(6 1664.01 287.166)" width="100%" height="100%"/><use xlink:href="#ac" id="ad" transform="rotate(5.806 15.996 181.703)" width="100%" height="100%"/><use xlink:href="#ad" id="ae" transform="rotate(5.806 31.99 181.705)" width="100%" height="100%"/><use xlink:href="#ae" id="af" transform="rotate(5.806 47.987 181.708)" width="100%" height="100%"/><use xlink:href="#af" id="ag" transform="rotate(5.806 63.983 181.712)" width="100%" height="100%"/><use xlink:href="#ag" id="ah" transform="rotate(5.806 79.98 181.715)" width="100%" height="100%"/><use xlink:href="#ah" id="ai" transform="rotate(5.806 95.976 181.72)" width="100%" height="100%"/><use xlink:href="#ai" id="aj" transform="rotate(5.806 111.974 181.723)" width="100%" height="100%"/><use xlink:href="#aj" id="ak" transform="rotate(5.806 127.97 181.728)" width="100%" height="100%"/><use xlink:href="#ak" id="al" transform="rotate(5.806 143.97 181.733)" width="100%" height="100%"/><use xlink:href="#al" id="am" transform="rotate(5.806 159.968 181.738)" width="100%" height="100%"/><use xlink:href="#am" id="an" transform="rotate(5.806 175.968 181.743)" width="100%" height="100%"/><use xlink:href="#an" id="ao" transform="rotate(5.806 191.97 181.746)" width="100%" height="100%"/><use xlink:href="#ao" id="ap" transform="rotate(5.806 207.988 181.746)" width="100%" height="100%"/><use xlink:href="#ap" id="aq" transform="rotate(5.806 224.03 181.744)" width="100%" height="100%"/><use xlink:href="#aq" id="ar" transform="rotate(5.806 240.047 181.737)" width="100%" height="100%"/><use xlink:href="#ac" transform="rotate(92.896 135.993 145.652)" width="100%" height="100%"/><use xlink:href="#ad" transform="rotate(92.896 151.993 145.652)" width="100%" height="100%"/><use xlink:href="#ae" transform="rotate(92.896 167.993 145.652)" width="100%" height="100%"/><use xlink:href="#af" transform="rotate(92.896 183.993 145.652)" width="100%" height="100%"/><use xlink:href="#ag" transform="rotate(92.896 199.992 145.652)" width="100%" height="100%"/><use xlink:href="#ah" transform="rotate(92.896 215.992 145.652)" width="100%" height="100%"/><use xlink:href="#ai" transform="rotate(92.896 231.992 145.652)" width="100%" height="100%"/><use xlink:href="#aj" transform="rotate(92.896 247.992 145.652)" width="100%" height="100%"/><use xlink:href="#ak" transform="rotate(92.896 263.992 145.652)" width="100%" height="100%"/><use xlink:href="#al" transform="rotate(92.896 279.992 145.652)" width="100%" height="100%"/><use xlink:href="#am" transform="rotate(92.896 295.99 145.652)" width="100%" height="100%"/><use xlink:href="#an" transform="rotate(92.896 311.99 145.652)" width="100%" height="100%"/><use xlink:href="#ao" transform="rotate(92.896 327.992 145.653)" width="100%" height="100%"/><use xlink:href="#ap" transform="rotate(92.896 343.992 145.654)" width="100%" height="100%"/><use xlink:href="#aq" transform="rotate(92.896 359.994 145.655)" width="100%" height="100%"/><use xlink:href="#ar" transform="rotate(92.896 375.993 145.654)" width="100%" height="100%"/><g id="au" fill="none" stroke-width="17.832"><path d="M-3.444 184.72a22.98 22.98 0 0 1-25.904 17.426 22.98 22.98 0 0 1-19.374-24.482 22.98 22.98 0 0 1 22.913-21.206" transform="matrix(.04836 -.18057 .18057 .0483 -23.14 26.568)" stroke="url(#as)" stroke-linecap="round"/><path transform="matrix(.18687 -.0043 .00435 .1869 12.01 6.34)" d="M-3.444 184.72a22.98 22.98 0 0 1-25.904 17.426 22.98 22.98 0 0 1-19.374-24.482 22.98 22.98 0 0 1 22.913-21.206" stroke="url(#at)"/></g><use height="100%" width="100%" transform="rotate(5.806 15.996 197.703)" id="av" xlink:href="#au"/><use height="100%" width="100%" transform="rotate(5.806 31.99 197.705)" id="aw" xlink:href="#av"/><use height="100%" width="100%" transform="rotate(5.806 47.987 197.708)" id="ax" xlink:href="#aw"/><use height="100%" width="100%" transform="rotate(5.806 63.983 197.712)" id="ay" xlink:href="#ax"/><use height="100%" width="100%" transform="rotate(5.806 79.98 197.715)" id="az" xlink:href="#ay"/><use height="100%" width="100%" transform="rotate(5.806 95.976 197.72)" id="aA" xlink:href="#az"/><use height="100%" width="100%" transform="rotate(5.806 111.974 197.723)" id="aB" xlink:href="#aA"/><use height="100%" width="100%" transform="rotate(5.806 127.97 197.728)" id="aC" xlink:href="#aB"/><use height="100%" width="100%" transform="rotate(5.806 143.97 197.733)" id="aD" xlink:href="#aC"/><use height="100%" width="100%" transform="rotate(5.806 159.968 197.738)" id="aE" xlink:href="#aD"/><use height="100%" width="100%" transform="rotate(5.806 175.968 197.743)" id="aF" xlink:href="#aE"/><use height="100%" width="100%" transform="rotate(5.806 191.97 197.746)" id="aG" xlink:href="#aF"/><use height="100%" width="100%" transform="rotate(5.806 207.988 197.746)" id="aH" xlink:href="#aG"/><use height="100%" width="100%" transform="rotate(5.806 224.03 197.744)" id="aI" xlink:href="#aH"/><use height="100%" width="100%" transform="rotate(5.806 240.047 197.737)" id="aJ" xlink:href="#aI"/><use height="100%" width="100%" transform="rotate(92.896 135.993 161.652)" xlink:href="#au"/><use height="100%" width="100%" transform="rotate(92.896 151.993 161.652)" xlink:href="#av"/><use height="100%" width="100%" transform="rotate(92.896 167.993 161.652)" xlink:href="#aw"/><use height="100%" width="100%" transform="rotate(92.896 183.993 161.652)" xlink:href="#ax"/><use height="100%" width="100%" transform="rotate(92.896 199.992 161.652)" xlink:href="#ay"/><use height="100%" width="100%" transform="rotate(92.896 215.992 161.652)" xlink:href="#az"/><use height="100%" width="100%" transform="rotate(92.896 231.992 161.652)" xlink:href="#aA"/><use height="100%" width="100%" transform="rotate(92.896 247.992 161.652)" xlink:href="#aB"/><use height="100%" width="100%" transform="rotate(92.896 263.992 161.652)" xlink:href="#aC"/><use height="100%" width="100%" transform="rotate(92.896 279.992 161.652)" xlink:href="#aD"/><use height="100%" width="100%" transform="rotate(92.896 295.99 161.652)" xlink:href="#aE"/><use height="100%" width="100%" transform="rotate(92.896 311.99 161.652)" xlink:href="#aF"/><use height="100%" width="100%" transform="rotate(92.896 327.992 161.653)" xlink:href="#aG"/><use height="100%" width="100%" transform="rotate(92.896 343.992 161.654)" xlink:href="#aH"/><use height="100%" width="100%" transform="rotate(92.896 359.994 161.655)" xlink:href="#aI"/><use height="100%" width="100%" transform="rotate(92.896 375.993 161.654)" xlink:href="#aJ"/></g></svg>