<svg xmlns="http://www.w3.org/2000/svg" width="16" height="16" version="1"><g transform="translate(0 -284)"><path d="M6 290c-1.108 0-2 .892-2 2s.892 2 2 2h4c1.108 0 2-.892 2-2s-.892-2-2-2H6zm0 1h4c.554 0 1 .446 1 1s-.446 1-1 1H6c-.554 0-1-.446-1-1s.446-1 1-1z" opacity=".65"/><path d="M4.07 292.5c-.04.16-.07.326-.07.5 0 1.108.892 2 2 2h4c1.108 0 2-.892 2-2 0-.174-.03-.34-.07-.5A1.99 1.99 0 0 1 10 294H6a1.99 1.99 0 0 1-1.93-1.5z" opacity=".1" fill="#fff"/><rect width="6" height="2" x="5" y="291" rx="1" ry="1" opacity=".3"/></g></svg>