/* XPM */
static char * bottom_right_inactive_xpm[] = {
"15 15 2 1",
" 	c None",
".	c #1B1B1B",
"              .",
"              .",
"              .",
"              .",
"              .",
"              .",
"              .",
"              .",
"              .",
"              .",
"              .",
"              .",
"              .",
"              .",
"..............."};
