/* XPM */
static char * maximize_prelight_xpm[] = {
"19 22 103 2",
"  	c #1A1A1A",
". 	c #414141",
"+ 	c #404040",
"@ 	c #3E3E3E",
"# 	c #3C3C3C",
"$ 	c #0C2F5A",
"% 	c #3A3A3A",
"& 	c #0C315E",
"* 	c #0C3261",
"= 	c #0D3363",
"- 	c #0D3566",
"; 	c #0D3668",
"> 	c #0D376A",
", 	c #0E396D",
"' 	c #0E3A6F",
") 	c #0E3B72",
"! 	c #0F3C74",
"~ 	c #0F3E77",
"{ 	c #0F3F79",
"] 	c #383838",
"^ 	c #0E3361",
"/ 	c #0E3463",
"( 	c #0E3566",
"_ 	c #0F3668",
": 	c #0F386B",
"< 	c #0F396D",
"[ 	c #0F3A6F",
"} 	c #103C72",
"| 	c #103D74",
"1 	c #103E77",
"2 	c #113F79",
"3 	c #11417C",
"4 	c #363636",
"5 	c #0D3463",
"6 	c #0E3666",
"7 	c #0E3768",
"8 	c #0E386B",
"9 	c #0F3B70",
"0 	c #0F3C72",
"a 	c #0F3D74",
"b 	c #103F77",
"c 	c #104079",
"d 	c #10417C",
"e 	c #11427E",
"f 	c #343434",
"g 	c #0D3565",
"h 	c #0D3667",
"i 	c #0E386A",
"j 	c #E0E0E0",
"k 	c #10417B",
"l 	c #10427D",
"m 	c #104380",
"n 	c #323232",
"o 	c #0D3768",
"p 	c #0D386A",
"q 	c #0E396C",
"r 	c #114480",
"s 	c #114582",
"t 	c #303030",
"u 	c #0F386A",
"v 	c #0F3A6D",
"w 	c #0F3B6F",
"x 	c #103E74",
"y 	c #103F76",
"z 	c #11417B",
"A 	c #124785",
"B 	c #2E2E2E",
"C 	c #103E76",
"D 	c #124583",
"E 	c #124685",
"F 	c #124787",
"G 	c #2C2C2C",
"H 	c #10407B",
"I 	c #10427E",
"J 	c #114585",
"K 	c #124788",
"L 	c #12488A",
"M 	c #2A2A2A",
"N 	c #134A8D",
"O 	c #282828",
"P 	c #114481",
"Q 	c #114583",
"R 	c #124888",
"S 	c #13498A",
"T 	c #134B8F",
"U 	c #262626",
"V 	c #0F3E76",
"W 	c #0F3F78",
"X 	c #114482",
"Y 	c #114685",
"Z 	c #114787",
"` 	c #124889",
" .	c #124A8C",
"..	c #134B8E",
"+.	c #134C91",
"@.	c #242424",
"#.	c #12498A",
"$.	c #134D91",
"%.	c #144E93",
"&.	c #222222",
"*.	c #202020",
"=.	c #1E1E1E",
"-.	c #1C1C1C",
"                                      ",
". . . . . . . . . . . . . . . . . . . ",
"+ + + + + + + + + + + + + + + + + + + ",
"@ @ @ @ @ @ @ @ @ @ @ @ @ @ @ @ @ @ @ ",
"# # # $ $ $ $ $ $ $ $ $ $ $ $ $ $ # # ",
"% % % $ & * = - ; > , ' ) ! ~ { $ % % ",
"] ] ] $ ^ / ( _ : < [ } | 1 2 3 $ ] ] ",
"4 4 4 $ 5 6 7 8 < 9 0 a b c d e $ 4 4 ",
"f f f $ g h i j j j j j j k l m $ f f ",
"n n n $ o p q j j j j j j l r s $ n n ",
"t t t $ u v w j x y c z j r s A $ t t ",
"B B B $ , [ 0 j C c k e j D E F $ B B ",
"G G G $ ' ) ! j { H I m j J K L $ G G ",
"M M M $ } | 1 j j j j j j K L N $ M M ",
"O O O $ a b c d e P Q E R S N T $ O O ",
"U U U $ V W k l m X Y Z `  ...+.$ U U ",
"@.@.@.$ c k l r s Y F #. ...$.%.$ @.@.",
"&.&.&.$ $ $ $ $ $ $ $ $ $ $ $ $ $ &.&.",
"*.*.*.*.*.*.*.*.*.*.*.*.*.*.*.*.*.*.*.",
"=.=.=.=.=.=.=.=.=.=.=.=.=.=.=.=.=.=.=.",
"-.-.-.-.-.-.-.-.-.-.-.-.-.-.-.-.-.-.-.",
"                                      "};
