/* XPM */
static char * top_left_inactive_xpm[] = {
"7 22 2 1",
" 	c #070707",
".	c #1A1A1A",
"       ",
" ......",
" ......",
" ......",
" ......",
" ......",
" ......",
" ......",
" ......",
" ......",
" ......",
" ......",
" ......",
" ......",
" ......",
" ......",
" ......",
" ......",
" ......",
" ......",
" ......",
"       "};
