<?xml version="1.0" encoding="UTF-8" standalone="no"?>
<svg
   xmlns:osb="http://www.openswatchbook.org/uri/2009/osb"
   xmlns:dc="http://purl.org/dc/elements/1.1/"
   xmlns:cc="http://creativecommons.org/ns#"
   xmlns:rdf="http://www.w3.org/1999/02/22-rdf-syntax-ns#"
   xmlns:svg="http://www.w3.org/2000/svg"
   xmlns="http://www.w3.org/2000/svg"
   xmlns:xlink="http://www.w3.org/1999/xlink"
   xmlns:sodipodi="http://sodipodi.sourceforge.net/DTD/sodipodi-0.dtd"
   xmlns:inkscape="http://www.inkscape.org/namespaces/inkscape"
   inkscape:version="1.0 (4035a4f, 2020-05-01)"
   sodipodi:docname="root-folder-48.svg"
   id="svg20096"
   height="48"
   width="48"
   version="1.1">
  <sodipodi:namedview
     inkscape:current-layer="svg20096"
     inkscape:window-maximized="1"
     inkscape:window-y="23"
     inkscape:window-x="0"
     inkscape:cy="24"
     inkscape:cx="24"
     inkscape:zoom="11.020833"
     showgrid="false"
     id="namedview208"
     inkscape:window-height="723"
     inkscape:window-width="1366"
     inkscape:pageshadow="2"
     inkscape:pageopacity="0"
     guidetolerance="10"
     gridtolerance="10"
     objecttolerance="10"
     borderopacity="1"
     bordercolor="#666666"
     pagecolor="#ffffff" />
  <defs
     id="defs20098">
    <linearGradient
       osb:paint="solid"
       id="linearGradient3528">
      <stop
         id="stop3526"
         offset="0"
         style="stop-color:#000000;stop-opacity:1;" />
    </linearGradient>
    <linearGradient
       gradientTransform="matrix(0.89189031,0,0,1.0986542,3.1206758,3.8887972)"
       gradientUnits="userSpaceOnUse"
       xlink:href="#linearGradient3454-2-8-6-1-1-8-0-6"
       id="linearGradient3381-56-2-7-5-0-8-0-0"
       y2="35.581654"
       x2="42.470848"
       y1="11.952797"
       x1="42.470848" />
    <linearGradient
       id="linearGradient3454-2-8-6-1-1-8-0-6">
      <stop
         offset="0"
         style="stop-color:#ffffff;stop-opacity:1"
         id="stop3456-4-7-9-4-0-3-6-2" />
      <stop
         offset="0.0097359"
         style="stop-color:#ffffff;stop-opacity:0.23529412"
         id="stop3458-39-0-8-61-3-8-9-0" />
      <stop
         offset="0.99001008"
         style="stop-color:#ffffff;stop-opacity:0.15686275"
         id="stop3460-7-5-4-1-6-6-6-2" />
      <stop
         offset="1"
         style="stop-color:#ffffff;stop-opacity:0.39215687"
         id="stop3462-0-5-6-6-2-1-6-0" />
    </linearGradient>
    <linearGradient
       gradientTransform="matrix(1.1446925,0,0,0.9977536,-3.4660851,1.0988289)"
       gradientUnits="userSpaceOnUse"
       xlink:href="#linearGradient6129-963-697-142-998-580-273-0-8-4-9-0-0-0"
       id="linearGradient3072-0-3-0-7-4-8-7"
       y2="36.657963"
       x2="22.809399"
       y1="49.629246"
       x1="22.934725" />
    <linearGradient
       id="linearGradient6129-963-697-142-998-580-273-0-8-4-9-0-0-0">
      <stop
         offset="0"
         style="stop-color:#0a0a0a;stop-opacity:0.498"
         id="stop2661-3-02-4-8-0-4-3" />
      <stop
         offset="1"
         style="stop-color:#0a0a0a;stop-opacity:0"
         id="stop2663-2-8-06-2-4-6-4" />
    </linearGradient>
    <linearGradient
       gradientTransform="matrix(1,0,0,1.0357143,1.4880025e-5,-1.5891011)"
       gradientUnits="userSpaceOnUse"
       xlink:href="#linearGradient4632-0-6-4"
       id="linearGradient4638-4-6-8-9-9-5-8"
       y2="43.761127"
       x2="35.792694"
       y1="17.118193"
       x1="35.792694" />
    <linearGradient
       id="linearGradient4632-0-6-4">
      <stop
         offset="0"
         style="stop-color:#e9e9e9;stop-opacity:1"
         id="stop4634-4-4-7" />
      <stop
         offset="1"
         style="stop-color:#b4b4b4;stop-opacity:1"
         id="stop4636-3-1-5" />
    </linearGradient>
    <radialGradient
       gradientTransform="matrix(-0.03079083,0,0,0.02470588,23.389815,31.941629)"
       gradientUnits="userSpaceOnUse"
       xlink:href="#linearGradient5060-820-9-0-7-1-7-7-1"
       id="radialGradient3080-2-3-9-9-8-8-9"
       fy="486.64789"
       fx="605.71429"
       r="117.14286"
       cy="486.64789"
       cx="605.71429" />
    <linearGradient
       id="linearGradient5060-820-9-0-7-1-7-7-1">
      <stop
         offset="0"
         style="stop-color:#000000;stop-opacity:1"
         id="stop2681-5-4-3-6-3-8-2" />
      <stop
         offset="1"
         style="stop-color:#000000;stop-opacity:0"
         id="stop2683-8-6-9-4-6-6-2" />
    </linearGradient>
    <radialGradient
       gradientTransform="matrix(0.03079083,0,0,0.02470588,24.610215,31.941629)"
       gradientUnits="userSpaceOnUse"
       xlink:href="#linearGradient5060-179-2-0-3-6-2-2-8"
       id="radialGradient3083-4-5-6-4-5-0-5"
       fy="486.64789"
       fx="605.71429"
       r="117.14286"
       cy="486.64789"
       cx="605.71429" />
    <linearGradient
       id="linearGradient5060-179-2-0-3-6-2-2-8">
      <stop
         offset="0"
         style="stop-color:#000000;stop-opacity:1"
         id="stop2675-9-9-4-1-4-4-9" />
      <stop
         offset="1"
         style="stop-color:#000000;stop-opacity:0"
         id="stop2677-1-7-2-6-1-8-3" />
    </linearGradient>
    <linearGradient
       gradientTransform="matrix(0.07938856,0,0,0.02470588,-4.6932851,31.941629)"
       gradientUnits="userSpaceOnUse"
       xlink:href="#linearGradient5048-585-4-0-56-2-5-2-1"
       id="linearGradient3086-4-4-0-5-5-7-4"
       y2="609.50507"
       x2="302.85715"
       y1="366.64789"
       x1="302.85715" />
    <linearGradient
       id="linearGradient5048-585-4-0-56-2-5-2-1">
      <stop
         offset="0"
         style="stop-color:#000000;stop-opacity:0"
         id="stop2667-5-0-7-4-7-7-2" />
      <stop
         offset="0.5"
         style="stop-color:#000000;stop-opacity:1"
         id="stop2669-4-1-8-0-6-9-3" />
      <stop
         offset="1"
         style="stop-color:#000000;stop-opacity:0"
         id="stop2671-2-6-3-2-0-6-0" />
    </linearGradient>
    <linearGradient
       gradientTransform="matrix(0.89189031,0,0,1.0580283,3.1207247,5.3535889)"
       gradientUnits="userSpaceOnUse"
       xlink:href="#linearGradient4507-9-2-2-3-6-9-9"
       id="linearGradient3381-5-5-29-4-6-5-0-4"
       y2="34.143417"
       x2="21.37039"
       y1="4.2476678"
       x1="21.37039" />
    <linearGradient
       id="linearGradient4507-9-2-2-3-6-9-9">
      <stop
         offset="0"
         style="stop-color:#ffffff;stop-opacity:1"
         id="stop4509-9-8-4-2-3-4-5" />
      <stop
         offset="0.07395859"
         style="stop-color:#ffffff;stop-opacity:0.23529412"
         id="stop4511-7-50-2-1-3-9-4" />
      <stop
         offset="0.99001008"
         style="stop-color:#ffffff;stop-opacity:0.15686275"
         id="stop4513-2-0-2-9-2-6-2" />
      <stop
         offset="1"
         style="stop-color:#ffffff;stop-opacity:0.39215687"
         id="stop4515-3-9-8-6-6-0-7" />
    </linearGradient>
    <linearGradient
       gradientTransform="translate(-50.940885,-1.1095734e-5)"
       gradientUnits="userSpaceOnUse"
       xlink:href="#linearGradient4646-6-91-5-0-5-8-4"
       id="linearGradient3089-5-2-9-8-6-8-0-7-1"
       y2="16"
       x2="62.988873"
       y1="13"
       x1="62.988873" />
    <linearGradient
       id="linearGradient4646-6-91-5-0-5-8-4">
      <stop
         offset="0"
         style="stop-color:#f9f9f9;stop-opacity:1"
         id="stop4648-2-4-6-6-8-7-1" />
      <stop
         offset="1"
         style="stop-color:#d8d8d8;stop-opacity:1"
         id="stop4650-3-8-5-3-4-5-7" />
    </linearGradient>
    <linearGradient
       id="linearGradient3104-8-8-97-4-6-2-0-1-4-0-5-8">
      <stop
         offset="0"
         style="stop-color:#000000;stop-opacity:0.32173914"
         id="stop3106-5-4-3-5-0-1-61-9-2-7-3-3" />
      <stop
         offset="1"
         style="stop-color:#000000;stop-opacity:0.27826086"
         id="stop3108-4-3-7-8-2-4-01-9-9-0-6-4" />
    </linearGradient>
    <linearGradient
       gradientTransform="matrix(0.80749834,0,0,0.83374395,106.87671,-0.0698511)"
       gradientUnits="userSpaceOnUse"
       xlink:href="#linearGradient3104-8-8-97-4-6-2-0-1-4-0-5-8"
       id="linearGradient20094"
       y2="3.6336823"
       x2="-51.786404"
       y1="53.514328"
       x1="-51.786404" />
  </defs>
  <metadata
     id="metadata20101">
    <rdf:RDF>
      <cc:Work
         rdf:about="">
        <dc:format>image/svg+xml</dc:format>
        <dc:type
           rdf:resource="http://purl.org/dc/dcmitype/StillImage" />
        <dc:title></dc:title>
      </cc:Work>
    </rdf:RDF>
  </metadata>
  <rect
     width="38.333332"
     height="6.0000005"
     x="4.8333788"
     y="41"
     id="rect4173-6-7-7-3-5-1-4"
     style="display:inline;overflow:visible;visibility:visible;opacity:0.3;fill:url(#linearGradient3086-4-4-0-5-5-7-4);fill-opacity:1;fill-rule:nonzero;stroke:none;stroke-width:1;marker:none" />
  <path
     d="m 43.166705,41.000199 c 0,0 0,5.99967 0,5.99967 1.5856,0.0113 3.8333,-1.34422 3.8333,-3.00022 0,-1.656 -1.7695,-2.99945 -3.8333,-2.99945 z"
     id="path5058-7-9-1-3-0-3-4"
     style="display:inline;overflow:visible;visibility:visible;opacity:0.3;fill:url(#radialGradient3083-4-5-6-4-5-0-5);fill-opacity:1;fill-rule:nonzero;stroke:none;stroke-width:1;marker:none" />
  <path
     d="m 4.8333147,41.000199 c 0,0 0,5.99967 0,5.99967 -1.5856,0.0113 -3.8333,-1.34422 -3.8333,-3.00022 0,-1.656 1.7695,-2.99945 3.8333,-2.99945 z"
     id="path5018-8-1-1-6-9-4-9"
     style="display:inline;overflow:visible;visibility:visible;opacity:0.3;fill:url(#radialGradient3080-2-3-9-9-8-8-9);fill-opacity:1;fill-rule:nonzero;stroke:none;stroke-width:1;marker:none" />
  <g
     id="g3539">
    <path
       style="color:#000000;display:inline;overflow:visible;visibility:visible;opacity:0.8;fill:#ff0000;stroke:url(#linearGradient20094);stroke-width:1;stroke-linecap:butt;stroke-linejoin:miter;stroke-miterlimit:4;stroke-dasharray:none;stroke-dashoffset:0;stroke-opacity:1;marker:none;enable-background:accumulate"
       id="rect4251-0-0-1-1-9-5-2-3"
       d="m 5.5000147,8.4999887 c -0.554,0 -1,0.446 -1,1 v 2.0000003 h -1 c -0.554,0 -1,0.446 -1,1 v 6 c 0,0.554 0.446,1 1,1 H 44.500005 c 0.554,0 1,-0.446 1,-1 v -6 c 0,-0.554 -0.446,-1 -1,-1 H 21.500015 V 9.4999887 c 0,-0.554 -0.446,-1 -1,-1 z" />
    <path
       style="color:#000000;display:inline;overflow:visible;visibility:visible;fill:#ff0000;fill-opacity:1;fill-rule:nonzero;stroke:none;stroke-width:0.999922;marker:none;enable-background:accumulate"
       id="rect4251-4-7-62-4-4-9-2"
       d="m 5.5000147,8.9999887 c -0.277,0 -0.5,0.223 -0.5,0.5 v 2.5000003 h -1.5 c -0.277,0 -0.5,0.223 -0.5,0.5 v 6 c 0,0.277 0.223,0.5 0.5,0.5 H 44.500005 c 0.277,0 0.5,-0.223 0.5,-0.5 v -6 c 0,-0.277 -0.223,-0.5 -0.5,-0.5 H 21.000015 V 9.4999887 c 0,-0.277 -0.223,-0.5 -0.5,-0.5 z" />
    <path
       style="color:#000000;display:inline;overflow:visible;visibility:visible;fill:#ff0000;stroke:none;stroke-width:1;stroke-linecap:round;stroke-linejoin:round;stroke-miterlimit:4;stroke-dasharray:none;stroke-dashoffset:0;stroke-opacity:1;marker:none;enable-background:accumulate"
       id="rect4251-9-9-0-05-2-0-5-9"
       d="m 5.5000147,9.4999887 v 3.0000003 h -2 v 7 H 44.500005 v -7 H 20.500015 V 9.4999887 Z" />
    <path
       style="fill:#ff0000;fill-opacity:1;stroke:none"
       id="path3388-1-43-0-7-6-2-7"
       d="m 2.1626147,15.500179 c -1.0723,0.12829 -0.4996,1.45416 -0.5851,2.19974 0.1245,0.48182 0.9275,26.17643 0.9275,26.17643 0,0.7414 0.3517,0.61579 1.2429,0.61579 13.1886003,0 27.7726003,0 40.9610903,0 0.9601,0.0231 0.7572,0.0121 0.7572,-0.62748 0,0 0.993,-27.35421 1.0285,-27.7811 0,-0.44949 0.09,-0.58338 -0.4732,-0.58338 -14.08399,0 -29.77479,0 -43.8588903,0 z" />
    <path
       style="opacity:0.4;fill:#ff0000;fill-opacity:1;stroke:none"
       id="path6127-7-1-6-4-8-5-0"
       d="m 2.0582147,16.065139 43.8964903,4e-4 c 0.6342,0 1.0452,0.44461 1.0452,0.99737 l -1.0324,26.96037 c 0.015,0.6994 -0.2091,0.97671 -0.9459,0.96204 l -41.7807903,-0.0176 c -0.6341,0 -1.2736,-0.41276 -1.2736,-0.96551 l -0.9541,-26.93932 c 0,-0.55276 0.411,-0.99775 1.0451,-0.99775 z" />
    <path
       style="color:#000000;display:inline;overflow:visible;visibility:visible;opacity:0.5;fill:#ff0000;stroke:url(#linearGradient3381-56-2-7-5-0-8-0-0);stroke-width:1;stroke-linecap:round;stroke-linejoin:miter;stroke-miterlimit:4;stroke-dasharray:none;stroke-dashoffset:0;stroke-opacity:1;marker:none;enable-background:accumulate"
       id="path4587-4-6-3-0-1-2-6"
       d="m 2.5000149,16.501589 c 0.016793,0.183201 0.022163,0.537822 0.03125,0.908598 0.023112,0.08973 0.025524,0.0615 0.03125,0.09735 0.011058,0.06921 0.027034,0.143566 0.03125,0.1947 0.0064,0.07761 -0.00668,0.179686 0,0.292049 0.013352,0.224726 0.045306,0.53046 0.0625,0.908598 0.034388,0.756279 0.078083,1.774501 0.125,3.017844 0.093834,2.486686 0.2030642,5.769015 0.3125,9.02108 0.2122959,6.308724 0.3945663,12.188202 0.40625,12.558122 0.1225025,0.0037 0.071108,0 0.25,0 H 44.468765 c 0.0124,-0.341463 0.253182,-6.673492 0.5,-13.40182 0.126691,-3.453636 0.245386,-6.941969 0.34375,-9.572729 0.04918,-1.31538 0.09434,-2.421026 0.125,-3.212543 0.01322,-0.341236 0.02246,-0.594976 0.03125,-0.811248 z" />
    <path
       style="opacity:0.3;fill:#ff0000;stroke:#000000;stroke-width:1;stroke-linecap:round;stroke-linejoin:round;stroke-miterlimit:4;stroke-dashoffset:0;stroke-opacity:1"
       id="path3388-1-43-0-7-6-2-7-0"
       d="m 2.1626147,15.500179 c -1.0723,0.12829 -0.4996,1.45416 -0.5851,2.19974 0.1245,0.48182 0.9275,26.17643 0.9275,26.17643 0,0.7414 0.3517,0.61579 1.2429,0.61579 13.1886003,0 27.7726003,0 40.9610903,0 0.9601,0.0231 0.7572,0.0121 0.7572,-0.62748 0,0 0.993,-27.35421 1.0285,-27.7811 0,-0.44949 0.09,-0.58338 -0.4732,-0.58338 -14.08399,0 -29.77479,0 -43.8588903,0 z" />
  </g>
</svg>
