<svg xmlns="http://www.w3.org/2000/svg" xmlns:xlink="http://www.w3.org/1999/xlink" width="16" height="16"><defs><linearGradient xlink:href="#a" id="b" gradientUnits="userSpaceOnUse" x1="8" y1="1" x2="8" y2="14" gradientTransform="matrix(.86667 0 0 .92857 1.067 1037.397)"/><linearGradient id="a"><stop offset="0" stop-color="#0f0f0f"/><stop offset=".078" stop-color="#171717"/><stop offset=".974" stop-color="#171717"/><stop offset="1" stop-color="#1b1b1b"/></linearGradient></defs><g transform="translate(0 -1036.362)"><rect ry="1.5" rx="1.5" y="1037.862" x="1.5" height="13" width="13" color="#000" fill="none" stroke="url(#b)" overflow="visible"/><rect width="12" height="12" x="2" y="2" transform="translate(0 1036.362)" rx="1" ry="1" fill="#313133"/><path d="M3 1038.362c-.554 0-1 .446-1 1v1c0-.554.446-1 1-1h10c.554 0 1 .446 1 1v-1c0-.554-.446-1-1-1H3z" opacity=".2"/><path d="M1 1049.362v1c0 1.108.892 2 2 2h10c1.108 0 2-.892 2-2v-1c0 1.108-.892 2-2 2H3c-1.108 0-2-.892-2-2z" opacity=".15" fill="#fff"/><rect width="12" height="12" x="2" y="2" transform="translate(0 1036.362)" rx="1" ry="1" fill="none"/></g></svg>