<?xml version="1.0" standalone="no"?>
<!DOCTYPE svg PUBLIC "-//W3C//DTD SVG 20010904//EN"
 "http://www.w3.org/TR/2001/REC-SVG-20010904/DTD/svg10.dtd">
<svg version="1.0" xmlns="http://www.w3.org/2000/svg"
 width="128.000000pt" height="128.000000pt" viewBox="0 0 128.000000 128.000000"
 preserveAspectRatio="xMidYMid meet">

<g transform="translate(0.000000,128.000000) scale(0.100000,-0.100000)"
fill="#FFFFFF" stroke="none">
<path d="M600 1239 c-131 -22 -273 -125 -356 -259 -21 -35 -39 -66 -39 -69 0
-3 -4 -12 -8 -19 -5 -7 -11 -45 -14 -85 -5 -63 -3 -75 15 -97 l21 -25 1 43 c0
23 9 70 20 103 48 143 147 241 292 290 53 18 80 20 168 17 93 -4 114 -8 176
-37 46 -21 88 -50 121 -84 52 -54 89 -104 82 -112 -6 -5 -62 29 -132 78 -57
40 -72 45 -160 52 -86 7 -191 -11 -263 -45 -116 -56 -224 -192 -255 -323 -6
-26 -10 -87 -7 -135 3 -76 9 -98 43 -170 21 -45 44 -82 51 -82 9 0 7 13 -9 48
-19 40 -22 65 -22 167 0 114 2 124 31 186 91 191 304 312 493 279 69 -12 171
-54 211 -88 l25 -20 -80 19 c-184 45 -336 1 -462 -134 -26 -28 -52 -50 -58
-49 -5 2 -7 0 -3 -4 4 -4 -8 -37 -27 -73 -19 -36 -39 -86 -44 -111 -22 -101
10 -274 63 -339 34 -43 120 -125 144 -139 42 -24 44 -11 4 32 -170 184 -162
489 17 660 102 97 234 138 366 115 56 -10 69 -9 90 5 33 22 33 73 1 143 -32
67 -93 133 -175 187 -107 71 -207 94 -321 75z"/>
</g>
</svg>
