<svg xmlns="http://www.w3.org/2000/svg" xmlns:xlink="http://www.w3.org/1999/xlink" width="14.933" height="17.067" viewBox="0 0 14.000005 15.999999"><defs><linearGradient id="b"><stop offset="0" stop-color="#232323"/><stop offset="1" stop-color="#141414"/></linearGradient><linearGradient id="c"><stop offset="0" stop-opacity=".948"/><stop offset="1" stop-opacity=".962"/></linearGradient><linearGradient id="a"><stop offset="0" stop-opacity=".8"/><stop offset="1" stop-opacity=".9"/></linearGradient><linearGradient gradientTransform="matrix(1 0 0 -1 639 642)" gradientUnits="userSpaceOnUse" y2="14" x2="8" y1="1" x1="8" id="d" xlink:href="#b"/><clipPath id="e"><rect ry="1.424" y="-1" x="-2" height="18" width="16" fill="#2bff02" fill-opacity=".54" stroke="#000" stroke-width="0"/></clipPath><linearGradient y2="14" x2="8" y1="13" x1="8" gradientUnits="userSpaceOnUse" id="f" xlink:href="#c"/><linearGradient xlink:href="#a" id="g" gradientUnits="userSpaceOnUse" x1="14" y1="14" x2="14" y2="1"/><linearGradient xlink:href="#a" id="h" gradientUnits="userSpaceOnUse" x1="12" y1="14" x2="12" y2="1" gradientTransform="translate(2)"/></defs><path d="M641 641h12v-13h-12c-.554 0-1 .446-1 1v11c0 .554.446 1 1 1z" fill="url(#d)" transform="translate(-639 -627)"/><g><g clip-path="url(#e)" fill="none"><rect width="15" height="15" x=".5" y=".5" rx="1.487" ry="1.513" opacity=".15" stroke="#fff"/><rect ry="1.5" rx="1.5" y=".5" x=".5" height="14" width="15" color="#000" overflow="visible" stroke="url(#f)"/></g><rect ry="0" y="1" x="13" height="13" width="1" fill="url(#g)"/></g></svg>