<svg xmlns="http://www.w3.org/2000/svg" xmlns:xlink="http://www.w3.org/1999/xlink" width="14.933" height="17.067" viewBox="0 0 14.000005 15.999999"><defs><linearGradient id="b"><stop offset="0" stop-opacity=".8"/><stop offset="1" stop-opacity=".9"/></linearGradient><linearGradient id="c"><stop offset="0" stop-color="#fff"/><stop offset=".083" stop-color="#fff" stop-opacity="0"/><stop offset=".909" stop-color="#0b0b0b" stop-opacity="0"/><stop offset="1" stop-opacity=".027"/></linearGradient><linearGradient gradientTransform="translate(639 627)" gradientUnits="userSpaceOnUse" y2="14" x2="8" y1="1" x1="8" id="d" xlink:href="#a"/><linearGradient id="a"><stop offset="0" stop-color="#5c5f63"/><stop offset="1" stop-color="#3b3c3e"/></linearGradient><clipPath id="e"><rect ry="1.424" y="-1" x="-2" height="18" width="16" fill="#2bff02" fill-opacity=".54" stroke="#000" stroke-width="0"/></clipPath><linearGradient xlink:href="#b" id="f" gradientUnits="userSpaceOnUse" x1="8" y1="13" x2="8" y2="14"/><linearGradient xlink:href="#c" id="g" gradientUnits="userSpaceOnUse" x1="8" y1="2" x2="8" y2="13"/><linearGradient xlink:href="#b" id="h" gradientUnits="userSpaceOnUse" x1="14" y1="14" x2="14" y2="1"/><linearGradient xlink:href="#b" id="i" gradientUnits="userSpaceOnUse" gradientTransform="translate(2)" x1="12" y1="14" x2="12" y2="1"/></defs><path d="M641 628h12v13h-12c-.554 0-1-.446-1-1v-11c0-.554.446-1 1-1z" opacity=".903" fill="url(#d)" transform="translate(-639 -627)"/><g><g clip-path="url(#e)" fill="none"><rect width="15" height="15" x=".5" y=".5" rx="1.487" ry="1.513" opacity=".1" stroke="#000"/><rect ry="1.5" rx="1.5" y=".5" x=".5" height="14" width="15" color="#000" overflow="visible" opacity=".9" stroke="url(#f)"/><rect ry=".5" rx=".495" y="1.5" x="1.5" height="12" width="13" color="#000" overflow="visible" opacity=".2" stroke="url(#g)"/></g><rect ry="0" y="1" x="13" height="13" width="1" fill="url(#h)"/></g></svg>