<svg xmlns="http://www.w3.org/2000/svg" xmlns:xlink="http://www.w3.org/1999/xlink" width="49" height="65" viewBox="0 0 48.999999 65.000001"><defs><linearGradient xlink:href="#a" id="d" gradientUnits="userSpaceOnUse" gradientTransform="matrix(.993 0 0 .68333 -120.724 -146.467)" x1="683" y1="38" x2="683" y2="98"/><linearGradient id="a"><stop offset="0" stop-color="#494b4f"/><stop offset="1" stop-color="#393a3b"/></linearGradient><linearGradient xlink:href="#b" id="e" x1="683.502" y1="40.231" x2="683.502" y2="41.692" gradientUnits="userSpaceOnUse" gradientTransform="matrix(.99647 0 0 .6842 -123.087 -146.526)"/><linearGradient id="b"><stop offset="0" stop-color="#fff"/><stop offset="1" stop-color="#fff" stop-opacity="0"/></linearGradient><linearGradient xlink:href="#c" id="f" gradientUnits="userSpaceOnUse" gradientTransform="matrix(0 .99647 .6842 0 53.474 -123.087)" x1="683.502" y1="40.231" x2="683.502" y2="41.692"/><linearGradient id="c"><stop offset="0"/><stop offset="1" stop-opacity="0"/></linearGradient></defs><g transform="matrix(0 1 1 0 -144.862 -245)" opacity=".7" fill="none" stroke="#000" stroke-linejoin="round"><rect rx="8" ry="8" y="118.862" x="246.5" height="73" width="62" opacity=".03"/><rect rx="4" ry="4" y="122.862" x="250.5" height="65" width="54" opacity=".45"/><rect rx="5" ry="5" y="121.862" x="249.5" height="67" width="56" opacity=".25"/><rect rx="6" ry="6" y="120.862" x="248.5" height="69" width="58" opacity=".125"/><rect rx="7" ry="7" y="119.862" x="247.5" height="71" width="60" opacity=".062"/><rect rx="3" ry="3" y="123.362" x="251.5" height="63.5" width="52" opacity=".5"/></g><g transform="translate(-79 -409)"><path d="M417.5-120.5h48c1.108 0 2 .892 2 2v39h-52v-39c0-1.108.892-2 2-2z" transform="rotate(90)" fill="url(#d)" stroke="#000"/><path transform="rotate(90)" d="M417.5-119.5h48c.554 0 1 .446 1 1v37c0 .554-.446 1-1 1h-48c-.554 0-1-.446-1-1v-37c0-.554.446-1 1-1z" opacity=".15" fill="none" stroke="url(#e)" stroke-linejoin="round"/><path d="M80.5 416.5v49.998h38c.554 0 1-.444 1-.996v-48.006a.996.996 0 0 0-1-.996z" opacity=".07" fill="none" stroke="url(#f)"/><path d="M84 467h-4v-51h4z" opacity=".7" fill="#212425"/><rect transform="rotate(90)" width="50.998" height="1" x="416" y="-85" rx="0" opacity=".7"/><path opacity=".08" fill="#fff" d="M84 416v50.998h-1V416z"/></g></svg>