#define close_hover_width 8
#define close_hover_height 8
static unsigned char close_hover_bits[] = {
   0x21, 0x12, 0x0c, 0x12, 0x21, 0x00, 0x00, 0x00 };
