#define close_hover_width 12
#define close_hover_height 12
static unsigned char close_hover_bits[] = {
   0x00, 0x00, 0x00, 0x00, 0x00, 0x00, 0x86, 0x01, 0xce, 0x01, 0xfc, 0x00,
   0x78, 0x00, 0x78, 0x00, 0xfc, 0x00, 0xce, 0x01, 0x86, 0x01, 0x00, 0x00 };
