#define iconify_pressed_width 8
#define iconify_pressed_height 8
static unsigned char iconify_pressed_bits[] = {
   0x00, 0x00, 0x00, 0x00, 0x81, 0x42, 0x24, 0x18 };
